<svg width="544" height="354" viewBox="0 0 544 354" fill="none" xmlns="http://www.w3.org/2000/svg">
<g clip-path="url(#clip0_1455_1896)">
<path d="M544 165.849C544.001 179.904 538.697 193.44 529.149 203.753C519.602 214.066 506.513 220.395 492.501 221.476C492.028 221.512 491.549 221.547 491.07 221.569V168.618C491.071 168.088 490.953 167.566 490.725 167.088C490.497 166.61 490.166 166.19 489.754 165.857C489.707 165.808 489.654 165.765 489.597 165.728C489.545 165.686 489.49 165.647 489.432 165.613C488.93 165.29 488.354 165.098 487.758 165.054C487.162 165.01 486.565 165.116 486.02 165.363L485.427 164.061C486.076 163.766 486.78 163.612 487.494 163.611L446.752 128.512C447.067 128.155 447.396 127.804 447.725 127.454C455.406 119.357 465.338 113.75 476.238 111.357C487.139 108.963 498.507 109.894 508.873 114.028C519.239 118.162 528.127 125.31 534.389 134.548C540.651 143.786 543.999 154.689 544 165.849Z" fill="#F2F2F2"/>
<path d="M14.1464 203.892C13.9438 202.857 13.9706 201.79 14.225 200.766C14.4793 199.742 14.955 198.787 15.6186 197.967C16.2821 197.147 17.1174 196.482 18.0655 196.02C19.0137 195.558 20.0516 195.309 21.1063 195.292L53.2663 157.008L61.2952 167.274L28.5196 202.903C28.4318 204.677 27.6965 206.356 26.4529 207.624C25.2093 208.892 23.5439 209.659 21.7722 209.781C20.0005 209.903 18.2457 209.371 16.8402 208.286C15.4347 207.2 14.4762 205.637 14.1464 203.892H14.1464Z" fill="#FFB8B8"/>
<path d="M166.863 156.771C166.638 157.097 166.439 157.44 166.267 157.797L131.152 162.816L125.819 156.046L114.551 162.758L125.143 179.273L167.97 166.649C169.1 167.672 170.515 168.327 172.027 168.526C173.538 168.725 175.074 168.46 176.431 167.765C177.788 167.07 178.901 165.978 179.622 164.635C180.343 163.292 180.639 161.761 180.469 160.246C180.299 158.732 179.672 157.304 178.671 156.154C177.67 155.004 176.343 154.186 174.866 153.809C173.389 153.432 171.832 153.513 170.403 154.043C168.973 154.572 167.738 155.524 166.863 156.771Z" fill="#FFB8B8"/>
<path d="M106.88 284.683L113.094 290.87L139.917 269.847L130.745 260.715L106.88 284.683Z" fill="#FFB8B8"/>
<path d="M119.333 308.573L99.8031 289.128L107.316 281.582L119.3 293.515C120.291 294.501 121.078 295.673 121.616 296.964C122.154 298.255 122.432 299.639 122.435 301.037C122.438 302.436 122.166 303.821 121.633 305.114C121.101 306.407 120.319 307.582 119.333 308.573L119.333 308.573Z" fill="#2F2E41"/>
<path d="M73.8486 344.03H82.6178L86.7892 310.206H73.8472L73.8486 344.03Z" fill="#FFB8B8"/>
<path d="M99.5295 352.172L71.9697 352.173L71.9692 341.525L88.8809 341.524C90.2792 341.524 91.6639 341.799 92.9558 342.334C94.2477 342.869 95.4216 343.654 96.4104 344.642C97.3992 345.631 98.1836 346.805 98.7188 348.097C99.2539 349.389 99.5294 350.773 99.5295 352.172Z" fill="#2F2E41"/>
<path d="M71.9423 317.906L61.954 244.243C60.3908 233.111 60.8759 221.786 63.3854 210.828C65.4351 202.022 68.2041 195.922 71.6158 192.698C72.1542 192.193 72.8434 191.878 73.5779 191.802L106.556 188.367C107.192 188.302 107.832 188.419 108.403 188.705C108.975 188.99 109.453 189.432 109.782 189.979L110.866 191.786C110.998 192.005 111.104 192.239 111.183 192.482L118.155 214.097C118.259 214.424 118.427 214.727 118.649 214.988C118.871 215.249 119.143 215.463 119.449 215.618C130.427 221.223 166.087 240.143 164.046 248.306C162.128 255.976 144.176 268.412 138.72 272.041C138.164 272.412 137.51 272.608 136.841 272.603C136.173 272.598 135.522 272.392 134.972 272.012L125.914 265.815C125.472 265.513 125.109 265.109 124.855 264.637C124.601 264.165 124.463 263.639 124.454 263.104C124.444 262.568 124.563 262.038 124.801 261.557C125.038 261.077 125.387 260.66 125.819 260.342L132.065 255.74C132.447 255.458 132.745 255.078 132.927 254.639C133.109 254.201 133.168 253.721 133.098 253.251C133.027 252.781 132.83 252.34 132.528 251.974C132.225 251.608 131.828 251.331 131.38 251.174L97.8353 239.404C97.4587 239.272 97.0567 239.228 96.6604 239.275C96.264 239.323 95.8838 239.46 95.549 239.678C95.2143 239.895 94.9338 240.186 94.7292 240.529C94.5246 240.872 94.4013 241.257 94.3688 241.655L88.1837 317.25C88.1155 318.06 87.756 318.819 87.1718 319.385C86.5875 319.951 85.8181 320.286 85.0058 320.328L75.436 320.807C75.3777 320.81 75.32 320.811 75.2623 320.811C74.45 320.814 73.6646 320.521 73.0533 319.986C72.4421 319.451 72.047 318.712 71.9423 317.906Z" fill="#2F2E41"/>
<path d="M87.067 127.378C96.7694 127.378 104.635 119.513 104.635 109.811C104.635 100.108 96.7694 92.243 87.067 92.243C77.3646 92.243 69.4993 100.108 69.4993 109.811C69.4993 119.513 77.3646 127.378 87.067 127.378Z" fill="#FFB8B8"/>
<path d="M70.6354 189.689L57.704 142.507L57.9254 142.357C58.2032 142.17 86.0759 123.765 118.709 138.597L119.301 138.937L111.638 187.909C111.471 189.026 110.919 190.051 110.078 190.805C109.236 191.559 108.158 191.996 107.029 192.041L75.4978 193.253C75.4343 193.256 75.3709 193.257 75.3079 193.257C74.245 193.26 73.2109 192.911 72.3662 192.266C71.5214 191.621 70.913 190.715 70.6354 189.689Z" fill="#0052CC"/>
<path d="M57.2119 173.223L46.4419 160.838C45.9232 160.243 45.6311 159.484 45.6172 158.695C45.6033 157.905 45.8684 157.137 46.3658 156.524L57.6246 142.615L66.2675 144.972L70.8496 161.01L62.4948 172.946C62.2034 173.365 61.8198 173.711 61.3736 173.958C60.9273 174.206 60.4303 174.348 59.9207 174.373C59.8604 174.376 59.8005 174.377 59.7406 174.377C59.2609 174.378 58.7866 174.276 58.3502 174.076C57.9138 173.877 57.5255 173.586 57.2119 173.223Z" fill="#0052CC"/>
<path d="M116.769 170.643C116.259 170.618 115.762 170.476 115.316 170.229C114.869 169.981 114.486 169.635 114.195 169.216L105.84 157.28L109.858 140.398L117.816 138.228L119.301 138.937L130.324 152.794C130.821 153.407 131.086 154.176 131.072 154.965C131.058 155.754 130.766 156.513 130.247 157.108L119.477 169.494C119.164 169.857 118.776 170.148 118.339 170.347C117.903 170.546 117.428 170.648 116.949 170.647C116.889 170.647 116.829 170.646 116.769 170.643Z" fill="#0052CC"/>
<path d="M491.07 165.113C491.077 165.291 491.015 165.465 490.898 165.599C490.775 165.743 490.6 165.833 490.41 165.847C490.221 165.862 490.034 165.801 489.89 165.678L487.494 163.611L446.752 128.513L332.481 30.0558C331.829 29.4978 330.999 29.1917 330.141 29.193C329.283 29.1943 328.453 29.5029 327.803 30.0629L173.92 163.754L172.533 164.955C172.479 165.003 172.419 165.041 172.354 165.07C172.239 165.121 172.113 165.14 171.989 165.127C171.81 165.108 171.645 165.024 171.524 164.891C171.462 164.821 171.414 164.739 171.384 164.65C171.353 164.561 171.341 164.467 171.347 164.373C171.353 164.28 171.377 164.188 171.419 164.104C171.46 164.02 171.518 163.944 171.588 163.883L171.781 163.711L326.866 28.9829C327.777 28.2002 328.938 27.7687 330.139 27.766C331.34 27.7634 332.503 28.1899 333.418 28.9686L447.725 127.454L490.82 164.591C490.895 164.656 490.956 164.736 490.999 164.826C491.042 164.915 491.066 165.013 491.07 165.113Z" fill="#3F3D56"/>
<path d="M404.187 186.235L402.305 181.056L395.825 163.174L381.863 124.672L366.256 81.6338L338.11 4.0057C337.557 2.49188 336.427 1.25877 334.967 0.5764C333.507 -0.105973 331.836 -0.181995 330.32 0.364982L167.59 59.3675C166.076 59.9196 164.842 61.0495 164.16 62.5097C163.477 63.9698 163.402 65.6409 163.949 67.1568L203.854 177.208L204.533 179.089L246.42 198.072L258.193 203.408L260.103 204.274L309.95 226.869L311.881 226.168L344.576 214.316L393.894 196.434L400.539 194.024C402.054 193.472 403.288 192.343 403.972 190.883C404.656 189.423 404.733 187.751 404.187 186.235Z" fill="#E6E6E6"/>
<path d="M335.95 94.5659C335.138 92.3379 333.476 90.5228 331.328 89.5185C329.18 88.5142 326.721 88.4027 324.491 89.2085L260.103 112.562L229.01 123.835C227.905 124.234 226.89 124.847 226.022 125.639C225.155 126.431 224.452 127.386 223.953 128.45C223.455 129.514 223.171 130.665 223.118 131.839C223.065 133.012 223.244 134.185 223.644 135.289C224.045 136.393 224.659 137.408 225.452 138.275C226.244 139.142 227.2 139.844 228.265 140.341C229.329 140.839 230.481 141.121 231.654 141.173C232.828 141.225 234 141.045 235.104 140.643L260.103 131.581L330.593 106.024C332.82 105.213 334.635 103.551 335.64 101.403C336.644 99.2545 336.755 96.7959 335.95 94.5659Z" fill="white"/>
<path d="M347.287 125.837C346.475 123.609 344.813 121.794 342.665 120.79C340.517 119.786 338.058 119.674 335.828 120.48L324.92 124.435L260.103 147.939L240.347 155.099C238.119 155.909 236.304 157.57 235.3 159.717C234.297 161.865 234.186 164.323 234.994 166.551C235.802 168.78 237.461 170.597 239.608 171.602C241.754 172.608 244.212 172.721 246.441 171.915L260.103 166.958L341.93 137.289C342.115 137.224 342.294 137.146 342.473 137.067C344.551 136.156 346.204 134.488 347.098 132.403C347.992 130.318 348.059 127.971 347.287 125.837Z" fill="white"/>
<path d="M358.745 157.438C357.935 155.21 356.275 153.395 354.128 152.391C351.981 151.387 349.523 151.275 347.294 152.081L316.702 163.174L293.019 171.765L260.103 183.695L251.806 186.707C249.888 187.405 248.267 188.737 247.209 190.483C246.152 192.228 245.722 194.283 245.99 196.306C246.072 196.908 246.216 197.5 246.42 198.072L258.193 203.408L260.103 202.714H260.117L319.849 181.056L353.388 168.897C355.617 168.086 357.434 166.425 358.438 164.276C359.443 162.127 359.553 159.668 358.745 157.438H358.745Z" fill="white"/>
<path d="M291.703 63.8236C290.892 61.5957 289.229 59.7806 287.081 58.7763C284.933 57.772 282.475 57.6605 280.245 58.4662L243.265 71.8703C241.037 72.68 239.222 74.3411 238.218 76.4885C237.215 78.6359 237.104 81.094 237.912 83.3225C238.72 85.5511 240.379 87.3679 242.526 88.3737C244.672 89.3794 247.13 89.4919 249.359 88.6863L261.061 84.4448L268.807 81.6338L286.346 75.275C288.574 74.4648 290.389 72.8041 291.393 70.6572C292.397 68.5103 292.509 66.0526 291.703 63.8236Z" fill="white"/>
<path d="M439.277 81.6338H266.182C265.161 81.6348 264.157 81.8928 263.262 82.3841C262.367 82.8754 261.61 83.584 261.061 84.4448C260.434 85.4193 260.101 86.5544 260.103 87.7136V204.274L309.95 226.869L316.974 230.052L328.067 235.08C328.717 235.374 329.422 235.526 330.135 235.526C330.848 235.526 331.552 235.374 332.202 235.08L343.296 230.052L378.015 214.316L410.374 199.646L445.357 183.796V87.7136C445.356 86.1014 444.715 84.5556 443.575 83.4157C442.435 82.2757 440.89 81.6348 439.277 81.6338Z" fill="#0052CC"/>
<path d="M403.514 163.174H301.946C299.636 163.176 297.417 164.071 295.753 165.672C294.089 167.274 293.109 169.457 293.019 171.765C293.007 171.881 293.003 171.998 293.005 172.115C293.008 174.485 293.951 176.758 295.627 178.434C297.303 180.11 299.576 181.053 301.946 181.056H403.514C405.885 181.056 408.159 180.114 409.836 178.437C411.513 176.761 412.455 174.486 412.455 172.115C412.455 169.744 411.513 167.47 409.836 165.793C408.159 164.116 405.885 163.174 403.514 163.174Z" fill="white"/>
<path d="M409.301 198.566C407.688 197.187 405.636 196.43 403.514 196.434H301.946C299.575 196.434 297.3 197.376 295.624 199.053C293.947 200.73 293.005 203.004 293.005 205.375C293.005 207.746 293.947 210.021 295.624 211.697C297.3 213.374 299.575 214.316 301.946 214.316H378.015L410.374 199.646C410.047 199.256 409.688 198.895 409.301 198.566Z" fill="white"/>
<path d="M316.974 230.052L328.067 235.08C328.717 235.374 329.422 235.526 330.135 235.526C330.848 235.526 331.552 235.374 332.202 235.08L343.296 230.052H316.974Z" fill="white"/>
<path d="M380.797 125.058C380.168 123.337 379.025 121.85 377.523 120.8C376.021 119.75 374.233 119.186 372.4 119.185H333.06C331.343 119.187 329.662 119.683 328.218 120.614C326.775 121.545 325.63 122.871 324.92 124.435C324.391 125.594 324.117 126.853 324.119 128.126C324.123 130.496 325.066 132.769 326.742 134.445C328.418 136.121 330.69 137.064 333.06 137.067H372.4C373.838 137.067 375.255 136.72 376.531 136.056C377.807 135.391 378.903 134.429 379.727 133.25C380.551 132.071 381.079 130.711 381.265 129.285C381.452 127.859 381.291 126.409 380.797 125.058Z" fill="white"/>
<path d="M374.546 214.316L339.826 230.052L331.608 233.779C331.145 233.987 330.643 234.095 330.135 234.095C329.627 234.095 329.124 233.987 328.661 233.779L320.443 230.052H316.974L328.068 235.08C328.717 235.374 329.422 235.526 330.135 235.526C330.848 235.526 331.552 235.374 332.202 235.08L343.296 230.052L378.015 214.316H374.546ZM374.546 214.316L339.826 230.052L331.608 233.779C331.145 233.987 330.643 234.095 330.135 234.095C329.627 234.095 329.124 233.987 328.661 233.779L320.443 230.052H316.974L328.068 235.08C328.717 235.374 329.422 235.526 330.135 235.526C330.848 235.526 331.552 235.374 332.202 235.08L343.296 230.052L378.015 214.316H374.546ZM374.546 214.316L339.826 230.052L331.608 233.779C331.145 233.987 330.643 234.095 330.135 234.095C329.627 234.095 329.124 233.987 328.661 233.779L320.443 230.052H316.974L328.068 235.08C328.717 235.374 329.422 235.526 330.135 235.526C330.848 235.526 331.552 235.374 332.202 235.08L343.296 230.052L378.015 214.316H374.546ZM491.07 165.113C490.806 164.85 490.516 164.615 490.205 164.412C489.502 163.956 488.696 163.685 487.861 163.624C487.025 163.563 486.188 163.713 485.427 164.061L409.301 198.566L374.546 214.316L339.826 230.052L331.608 233.779C331.145 233.987 330.643 234.095 330.135 234.095C329.627 234.095 329.124 233.987 328.661 233.779L320.443 230.052L311.881 226.168L260.117 202.714L260.103 202.707L245.99 196.306L203.854 177.208L174.843 164.061C174.548 163.925 174.238 163.822 173.92 163.754C173.22 163.579 172.488 163.564 171.781 163.711C170.65 163.942 169.633 164.557 168.903 165.451C168.172 166.345 167.771 167.463 167.769 168.618V348.243C167.77 349.57 168.298 350.843 169.237 351.782C170.176 352.72 171.448 353.248 172.776 353.25H487.494C488.821 353.248 490.094 352.72 491.033 351.782C491.971 350.843 492.499 349.57 492.501 348.243V168.618C492.503 167.307 491.989 166.048 491.07 165.113V165.113ZM491.07 348.243C491.07 349.191 490.693 350.101 490.022 350.771C489.352 351.442 488.442 351.819 487.494 351.819H172.776C171.827 351.819 170.918 351.442 170.247 350.771C169.577 350.101 169.2 349.191 169.199 348.243V168.618C169.2 168.02 169.35 167.432 169.636 166.907C169.922 166.382 170.335 165.937 170.837 165.613C171.191 165.387 171.58 165.223 171.989 165.127C172.109 165.101 172.231 165.082 172.354 165.07C172.493 165.05 172.634 165.04 172.776 165.041C173.284 165.042 173.787 165.152 174.249 165.363L204.533 179.089L246.42 198.072L258.193 203.408L260.103 204.274L309.95 226.869L316.974 230.052L328.067 235.08C328.717 235.374 329.422 235.526 330.135 235.526C330.848 235.526 331.552 235.374 332.202 235.08L343.296 230.052L378.015 214.316L410.374 199.646L486.02 165.363C486.565 165.116 487.162 165.01 487.758 165.054C488.354 165.098 488.93 165.29 489.432 165.613C489.49 165.647 489.545 165.686 489.597 165.728C489.654 165.765 489.707 165.808 489.754 165.857C490.165 166.19 490.497 166.61 490.725 167.088C490.953 167.566 491.071 168.088 491.07 168.618L491.07 348.243ZM374.546 214.316L339.826 230.052L331.608 233.779C331.145 233.987 330.643 234.095 330.135 234.095C329.627 234.095 329.124 233.987 328.661 233.779L320.443 230.052H316.974L328.068 235.08C328.717 235.374 329.422 235.526 330.135 235.526C330.848 235.526 331.552 235.374 332.202 235.08L343.296 230.052L378.015 214.316H374.546ZM374.546 214.316L339.826 230.052L331.608 233.779C331.145 233.987 330.643 234.095 330.135 234.095C329.627 234.095 329.124 233.987 328.661 233.779L320.443 230.052H316.974L328.068 235.08C328.717 235.374 329.422 235.526 330.135 235.526C330.848 235.526 331.552 235.374 332.202 235.08L343.296 230.052L378.015 214.316H374.546ZM258.193 203.408L260.103 204.274V202.714L258.193 203.408ZM374.546 214.316L339.826 230.052L331.608 233.779C331.145 233.987 330.643 234.095 330.135 234.095C329.627 234.095 329.124 233.987 328.661 233.779L320.443 230.052H316.974L328.068 235.08C328.717 235.374 329.422 235.526 330.135 235.526C330.848 235.526 331.552 235.374 332.202 235.08L343.296 230.052L378.015 214.316H374.546Z" fill="#3F3D56"/>
<path d="M125.548 353.25H44.7228C44.5331 353.25 44.3512 353.174 44.2171 353.04C44.0829 352.906 44.0076 352.724 44.0076 352.535C44.0076 352.345 44.0829 352.163 44.2171 352.029C44.3512 351.895 44.5331 351.819 44.7228 351.819H125.548C125.738 351.819 125.92 351.895 126.054 352.029C126.188 352.163 126.263 352.345 126.263 352.535C126.263 352.724 126.188 352.906 126.054 353.04C125.92 353.174 125.738 353.25 125.548 353.25Z" fill="#3F3D56"/>
<path d="M80.3874 122.658C79.0678 121.989 77.9706 120.951 77.2286 119.671C76.4865 118.39 76.1315 116.922 76.2064 115.445C76.2813 113.967 76.7829 112.542 77.6506 111.344C78.5183 110.145 79.7148 109.224 81.0953 108.691C86.3965 106.645 92.3395 110.82 97.8964 109.633C103.435 108.45 106.639 101.828 105.317 96.3214C103.995 90.8144 99.1832 86.6664 93.8775 84.6854C90.4123 83.3948 86.7012 82.9 83.0189 83.2375C79.3366 83.5751 75.7774 84.7363 72.6045 86.6353C69.4644 88.5899 66.8492 91.282 64.9863 94.4773C63.1234 97.6727 62.0691 101.275 61.9151 104.97C61.843 108.669 62.7467 112.322 64.5352 115.56C66.3238 118.799 68.934 121.509 72.1032 123.418C73.5155 124.232 75.1594 124.885 76.7479 124.519C78.0519 124.095 79.2804 123.467 80.3874 122.658Z" fill="#2F2E41"/>
<path d="M74.6943 86.2072C70.0197 80.0069 63.7095 74.9133 56.3666 72.388C49.0237 69.8626 40.6327 70.0654 33.7364 73.6342C26.8402 77.203 21.6972 84.2907 21.1604 92.0371C20.2669 104.93 31.2832 115.889 32.4137 128.763C32.7721 132.843 32.1098 136.949 30.4864 140.71C28.8631 144.471 26.3297 147.769 23.1145 150.307C19.8993 152.845 16.1032 154.543 12.0681 155.249C8.03312 155.955 3.88589 155.646 0 154.35C2.76776 156.628 5.97675 158.31 9.4254 159.288C12.874 160.267 16.4878 160.522 20.0397 160.037C23.5858 159.505 26.969 158.19 29.944 156.189C32.919 154.187 35.4112 151.548 37.24 148.463C39.7193 144.156 40.7373 139.152 41.1328 134.197C41.7539 126.363 40.9128 118.482 38.6524 110.956C37.4168 106.85 35.741 102.624 36.5246 98.4075C36.9713 96.2145 38.0524 94.2011 39.6338 92.6175C41.2151 91.0338 43.227 89.9497 45.4193 89.4998C48.9622 88.836 52.5847 89.9173 55.9676 91.1617C59.3506 92.4061 62.7614 93.8462 66.3651 93.9286C69.9688 94.011 73.8939 92.3615 75.2866 89.0368L74.6943 86.2072Z" fill="#2F2E41"/>
</g>
<defs>
<clipPath id="clip0_1455_1896">
<rect width="544" height="353.25" fill="white"/>
</clipPath>
</defs>
</svg>
