<svg width="64" height="64" viewBox="0 0 64 64" fill="none" xmlns="http://www.w3.org/2000/svg">
<path d="M54.7174 16.6513C54.7174 16.3288 54.6539 16.0094 54.5304 15.7114C54.407 15.4135 54.2261 15.1427 53.998 14.9147C53.77 14.6866 53.4992 14.5057 53.2013 14.3823C52.9033 14.2588 52.5839 14.1953 52.2614 14.1953H11.7387C11.4162 14.1953 11.0968 14.2588 10.7988 14.3823C10.5009 14.5057 10.2301 14.6866 10.0021 14.9147C9.774 15.1427 9.59309 15.4135 9.46967 15.7114C9.34624 16.0094 9.28271 16.3288 9.28271 16.6513V47.35C9.28271 48.0014 9.54147 48.626 10.0021 49.0866C10.4626 49.5472 11.0873 49.806 11.7387 49.806H52.2614C52.9128 49.806 53.5374 49.5472 53.998 49.0866C54.4586 48.626 54.7174 48.0014 54.7174 47.35V16.6513Z" stroke="#0052CC" stroke-linecap="round" stroke-linejoin="round"/>
<path d="M50.7468 14.1937L49.9708 11.2924C49.8021 10.6633 49.3904 10.1271 48.8263 9.8015C48.2622 9.47594 47.5919 9.38778 46.9628 9.5564L29.6561 14.1937M54.7175 44.3457L56.1788 43.9537C56.4904 43.8703 56.7825 43.7264 57.0385 43.5301C57.2944 43.3337 57.5092 43.0889 57.6705 42.8096C57.8319 42.5303 57.9366 42.2219 57.9787 41.9021C58.0209 41.5823 57.9996 41.2573 57.9161 40.9457L54.7161 29.0084M13.2535 49.8044L14.0295 52.7044C14.1129 53.016 14.2568 53.3081 14.4532 53.5641C14.6495 53.82 14.8943 54.0348 15.1736 54.1961C15.4529 54.3575 15.7613 54.4622 16.0811 54.5043C16.4009 54.5465 16.7259 54.5252 17.0375 54.4417L34.3441 49.8044M9.2828 19.6524L7.82147 20.0444C7.50987 20.1278 7.21775 20.2718 6.96179 20.4681C6.70584 20.6644 6.49106 20.9092 6.32973 21.1885C6.1684 21.4679 6.06368 21.7762 6.02154 22.096C5.9794 22.4158 6.00067 22.7408 6.08414 23.0524L9.3028 35.0631M17.2641 21.5617H46.7348M17.2641 28.5204H46.7348M17.2641 35.4777H46.7348M17.2641 42.4364H32.0001" stroke="#0052CC" stroke-width="2" stroke-linecap="round" stroke-linejoin="round"/>
</svg>
