<svg width="42" height="42" viewBox="0 0 42 42" fill="none" xmlns="http://www.w3.org/2000/svg">
<path d="M21 0.6875C9.8 0.6875 0.6875 9.8 0.6875 21C0.6875 32.2 9.8 41.3125 21 41.3125C32.2 41.3125 41.3125 32.2 41.3125 21C41.3125 9.8 32.2 0.6875 21 0.6875ZM21 3.8125C30.5109 3.8125 38.1875 11.4891 38.1875 21C38.1875 25.2594 36.6406 29.1344 34.0859 32.1328L10.1094 7.67187C13.1825 5.16194 17.0322 3.7977 21 3.8125ZM7.91406 9.86719L31.8906 34.3281C28.8175 36.8381 24.9678 38.2023 21 38.1875C11.4891 38.1875 3.8125 30.5109 3.8125 21C3.8125 16.7406 5.35938 12.8656 7.91406 9.86719Z" fill="#0052CC"/>
</svg>
