<svg width="42" height="30" viewBox="0 0 42 30" fill="none" xmlns="http://www.w3.org/2000/svg">
<path d="M28.8126 20.2077C28.3982 20.2077 28.0008 20.3723 27.7077 20.6653C27.4147 20.9584 27.2501 21.3558 27.2501 21.7702C27.2501 22.1846 27.4147 22.582 27.7077 22.875C28.0008 23.1681 28.3982 23.3327 28.8126 23.3327H34.0209C34.4353 23.3327 34.8327 23.1681 35.1258 22.875C35.4188 22.582 35.5834 22.1846 35.5834 21.7702C35.5834 21.3558 35.4188 20.9584 35.1258 20.6653C34.8327 20.3723 34.4353 20.2077 34.0209 20.2077H28.8126ZM0.166748 7.18685C0.166748 5.39111 0.880101 3.66892 2.14988 2.39915C3.41966 1.12937 5.14185 0.416016 6.93758 0.416016H35.0626C35.9517 0.416016 36.8322 0.591149 37.6537 0.931415C38.4751 1.27168 39.2216 1.77042 39.8503 2.39915C40.479 3.02788 40.9778 3.77429 41.318 4.59576C41.6583 5.41724 41.8334 6.29769 41.8334 7.18685V22.8118C41.8334 23.701 41.6583 24.5815 41.318 25.4029C40.9778 26.2244 40.479 26.9708 39.8503 27.5996C39.2216 28.2283 38.4751 28.727 37.6537 29.0673C36.8322 29.4076 35.9517 29.5827 35.0626 29.5827H6.93758C5.14185 29.5827 3.41966 28.8693 2.14988 27.5996C0.880101 26.3298 0.166748 24.6076 0.166748 22.8118V7.18685ZM38.7084 9.79102V7.18685C38.7084 6.21991 38.3243 5.29258 37.6406 4.60886C36.9569 3.92513 36.0295 3.54102 35.0626 3.54102H6.93758C5.97065 3.54102 5.04331 3.92513 4.35959 4.60886C3.67586 5.29258 3.29175 6.21991 3.29175 7.18685V9.79102H38.7084ZM3.29175 12.916V22.8118C3.29175 24.8243 4.92508 26.4577 6.93758 26.4577H35.0626C36.0295 26.4577 36.9569 26.0736 37.6406 25.3898C38.3243 24.7061 38.7084 23.7788 38.7084 22.8118V12.916H3.29175Z" fill="#0052CC"/>
</svg>
