<svg width="50" height="50" viewBox="0 0 50 50" fill="none" xmlns="http://www.w3.org/2000/svg">
<g clip-path="url(#clip0_2293_6852)">
<path d="M50 6.25C50 4.5924 49.3415 3.00269 48.1694 1.83058C46.9973 0.65848 45.4076 0 43.75 0L6.25 0C4.5924 0 3.00269 0.65848 1.83058 1.83058C0.65848 3.00269 0 4.5924 0 6.25L0 31.25C0 32.9076 0.65848 34.4973 1.83058 35.6694C3.00269 36.8415 4.5924 37.5 6.25 37.5H36.2063C37.035 37.5002 37.8297 37.8295 38.4156 38.4156L47.3312 47.3313C47.5496 47.5501 47.828 47.6993 48.1311 47.76C48.4343 47.8206 48.7487 47.7899 49.0344 47.6718C49.3201 47.5537 49.5644 47.3535 49.7363 47.0965C49.9081 46.8395 49.9999 46.5373 50 46.2281V6.25ZM10.9375 9.375H39.0625C39.4769 9.375 39.8743 9.53962 40.1674 9.83265C40.4604 10.1257 40.625 10.5231 40.625 10.9375C40.625 11.3519 40.4604 11.7493 40.1674 12.0424C39.8743 12.3354 39.4769 12.5 39.0625 12.5H10.9375C10.5231 12.5 10.1257 12.3354 9.83265 12.0424C9.53962 11.7493 9.375 11.3519 9.375 10.9375C9.375 10.5231 9.53962 10.1257 9.83265 9.83265C10.1257 9.53962 10.5231 9.375 10.9375 9.375ZM10.9375 17.1875H39.0625C39.4769 17.1875 39.8743 17.3521 40.1674 17.6451C40.4604 17.9382 40.625 18.3356 40.625 18.75C40.625 19.1644 40.4604 19.5618 40.1674 19.8549C39.8743 20.1479 39.4769 20.3125 39.0625 20.3125H10.9375C10.5231 20.3125 10.1257 20.1479 9.83265 19.8549C9.53962 19.5618 9.375 19.1644 9.375 18.75C9.375 18.3356 9.53962 17.9382 9.83265 17.6451C10.1257 17.3521 10.5231 17.1875 10.9375 17.1875ZM10.9375 25H26.5625C26.9769 25 27.3743 25.1646 27.6674 25.4576C27.9604 25.7507 28.125 26.1481 28.125 26.5625C28.125 26.9769 27.9604 27.3743 27.6674 27.6674C27.3743 27.9604 26.9769 28.125 26.5625 28.125H10.9375C10.5231 28.125 10.1257 27.9604 9.83265 27.6674C9.53962 27.3743 9.375 26.9769 9.375 26.5625C9.375 26.1481 9.53962 25.7507 9.83265 25.4576C10.1257 25.1646 10.5231 25 10.9375 25Z" fill="#0052CC"/>
</g>
<defs>
<clipPath id="clip0_2293_6852">
<rect width="50" height="50" fill="white"/>
</clipPath>
</defs>
</svg>
