<svg width="64" height="64" viewBox="0 0 64 64" fill="none" xmlns="http://www.w3.org/2000/svg">
<path d="M32.0002 42.6673C37.8912 42.6673 42.6668 37.8917 42.6668 32.0007C42.6668 26.1096 37.8912 21.334 32.0002 21.334C26.1091 21.334 21.3335 26.1096 21.3335 32.0007C21.3335 37.8917 26.1091 42.6673 32.0002 42.6673Z" fill="#0052CC"/>
<path d="M34.6668 10.8513V5.33398H29.3335V10.8513C24.641 11.4505 20.2801 13.5904 16.935 16.9355C13.59 20.2806 11.45 24.6414 10.8508 29.334H5.3335V34.6673H10.8508C11.4491 39.3602 13.5888 43.7216 16.934 47.0668C20.2792 50.412 24.6406 52.5517 29.3335 53.15V58.6673H34.6668V53.15C39.3599 52.5521 43.7215 50.4126 47.0668 47.0673C50.4121 43.722 52.5517 39.3604 53.1495 34.6673H58.6668V29.334H53.1495C52.5512 24.6411 50.4115 20.2797 47.0663 16.9345C43.7211 13.5893 39.3597 11.4496 34.6668 10.8513ZM32.0002 48.0006C23.1762 48.0006 16.0002 40.8246 16.0002 32.0006C16.0002 23.1766 23.1762 16.0007 32.0002 16.0007C40.8242 16.0007 48.0002 23.1766 48.0002 32.0006C48.0002 40.8246 40.8242 48.0006 32.0002 48.0006Z" fill="#0052CC"/>
</svg>
