<svg width="24" height="24" viewBox="0 0 24 24" fill="none" xmlns="http://www.w3.org/2000/svg">
<path d="M22.2533 9.57343L21.6533 9.49353V9.4933C21.4122 9.47678 21.2035 9.32009 21.1201 9.0933C20.9486 8.58683 20.7437 8.09239 20.5067 7.61342C20.3984 7.3949 20.4299 7.13329 20.5866 6.94668L20.96 6.46677C21.2638 6.0795 21.4154 5.59443 21.3859 5.10295C21.3565 4.61165 21.148 4.14803 20.8 3.80003L20.1734 3.17346C19.8252 2.82525 19.3616 2.61677 18.8703 2.58729C18.379 2.55783 17.8939 2.70939 17.5067 3.01341L17.0268 3.38685L17.0265 3.38662C16.8402 3.54332 16.5783 3.57479 16.36 3.46675C15.8808 3.22948 15.3864 3.02457 14.8799 2.85338C14.6554 2.77481 14.4984 2.5708 14.4799 2.33329L14.4132 1.80004H14.4134C14.3585 1.31187 14.1281 0.860097 13.7652 0.52907C13.4022 0.197819 12.9312 0.00987611 12.44 5.32722e-05H11.5601C11.0721 -0.00351815 10.6 0.172596 10.2338 0.494692C9.86747 0.816789 9.63244 1.26258 9.57347 1.74669L9.49356 2.34669H9.49334C9.47682 2.58776 9.32013 2.79646 9.09334 2.87994C8.58686 3.05137 8.09243 3.25628 7.61345 3.49331C7.39493 3.60157 7.13332 3.5701 6.94671 3.41341L6.53332 3.09332C6.15251 2.78238 5.67104 2.62166 5.17972 2.6413C4.68865 2.66095 4.22144 2.85961 3.86675 3.20001L3.24018 3.82658H3.23996C2.89197 4.17479 2.68349 4.6384 2.65402 5.12972C2.62455 5.62101 2.77612 6.10606 3.07991 6.49331L3.45335 6.97322V6.97344C3.61005 7.15983 3.64152 7.42166 3.53326 7.63996C3.29621 8.1192 3.09129 8.61361 2.92012 9.12007C2.83664 9.34663 2.6277 9.50333 2.38664 9.52007L1.78664 9.59998C1.29981 9.64931 0.84824 9.87654 0.518355 10.2381C0.18867 10.6 0.00407041 11.0705 5.32724e-05 11.56V12.4399C-0.00351815 12.9279 0.172595 13.4 0.494692 13.7663C0.816788 14.1325 1.26258 14.3676 1.74669 14.4265L2.34669 14.5064V14.5067C2.58776 14.5232 2.79646 14.6799 2.87994 14.9067C3.05137 15.4131 3.25628 15.9076 3.49331 16.3866C3.60157 16.6051 3.5701 16.8667 3.41341 17.0533L3.03997 17.5332C2.73617 17.9205 2.58461 18.4055 2.61408 18.897C2.64354 19.3883 2.85202 19.8519 3.20002 20.1999L3.82659 20.8265C4.1748 21.1747 4.63841 21.3832 5.12973 21.4127C5.62102 21.4421 6.10607 21.2906 6.49332 20.9866L6.97323 20.6131L6.97346 20.6133C7.16252 20.4629 7.42055 20.4319 7.63997 20.5332C8.11921 20.7705 8.61362 20.9754 9.12008 21.1466C9.34463 21.2252 9.50155 21.4292 9.52008 21.6667L9.58682 22.1999H9.5866C9.64151 22.6881 9.87187 23.1399 10.2348 23.4709C10.5978 23.8022 11.0688 23.9901 11.56 23.9999H12.4399C12.9279 24.0035 13.4 23.8274 13.7662 23.5053C14.1325 23.1832 14.3676 22.7374 14.4265 22.2533L14.5064 21.6533H14.5067C14.5232 21.4122 14.6799 21.2035 14.9067 21.12C15.4131 20.9486 15.9076 20.7437 16.3865 20.5067C16.6051 20.3984 16.8667 20.4299 17.0533 20.5866L17.4667 20.9067C17.8475 21.2176 18.329 21.3783 18.8203 21.3587C19.3114 21.339 19.7786 21.1404 20.1332 20.8L20.7598 20.1734H20.76C21.108 19.8252 21.3165 19.3616 21.346 18.8703C21.3754 18.379 21.2239 17.8939 20.9201 17.5067L20.5467 17.0267V17.0265C20.39 16.8401 20.3585 16.5783 20.4667 16.36C20.7038 15.8808 20.9087 15.3864 21.0799 14.8799C21.1634 14.6533 21.3723 14.4966 21.6134 14.4799L22.2134 14.4C22.7002 14.3507 23.1518 14.1234 23.4816 13.7618C23.8113 13.4 23.9959 12.9295 23.9999 12.4399V11.5601C24.0035 11.0721 23.8274 10.6 23.5053 10.2337C23.1832 9.86743 22.7374 9.63241 22.2533 9.57343ZM12.0002 15.9997C10.9393 15.9997 9.92185 15.5783 9.17185 14.8281C8.42162 14.0781 8.0002 13.0606 8.0002 11.9997C8.0002 10.9388 8.42162 9.92138 9.17185 9.17138C9.92185 8.42115 10.9393 7.99972 12.0002 7.99972C13.0611 7.99972 14.0785 8.42115 14.8285 9.17138C15.5788 9.92138 16.0002 10.9388 16.0002 11.9997C16.0002 13.0606 15.5788 14.0781 14.8285 14.8281C14.0785 15.5783 13.0611 15.9997 12.0002 15.9997Z" fill="white"/>
</svg>
