<svg width="18" height="16" viewBox="0 0 18 16" fill="none" xmlns="http://www.w3.org/2000/svg">
<path d="M2.53991 3.25015C1.97265 2.61616 1.68902 2.29917 1.67833 2.02976C1.66903 1.79573 1.7696 1.57079 1.95021 1.42167C2.15812 1.25 2.58348 1.25 3.4342 1.25H14.5664C15.4171 1.25 15.8425 1.25 16.0504 1.42167C16.231 1.57079 16.3316 1.79573 16.3223 2.02976C16.3116 2.29917 16.0279 2.61616 15.4607 3.25015L11.181 8.03332C11.0679 8.1597 11.0114 8.22289 10.9711 8.29481C10.9353 8.35859 10.9091 8.42726 10.8932 8.49863C10.8753 8.57911 10.8753 8.6639 10.8753 8.83348V12.8438C10.8753 12.9905 10.8753 13.0638 10.8516 13.1272C10.8307 13.1832 10.7967 13.2334 10.7525 13.2736C10.7024 13.3192 10.6343 13.3464 10.4981 13.4009L7.94813 14.4209C7.67247 14.5311 7.53465 14.5863 7.424 14.5633C7.32725 14.5432 7.24234 14.4857 7.18774 14.4033C7.1253 14.3091 7.1253 14.1607 7.1253 13.8638V8.83348C7.1253 8.6639 7.1253 8.57911 7.10739 8.49863C7.09151 8.42726 7.06527 8.35859 7.02952 8.29481C6.9892 8.22289 6.93266 8.1597 6.81959 8.03332L2.53991 3.25015Z" stroke="#A9A9A9" stroke-width="2" stroke-linecap="round" stroke-linejoin="round"/>
</svg>
