<svg width="400" height="266" viewBox="0 0 400 266" fill="none" xmlns="http://www.w3.org/2000/svg">
<g clip-path="url(#clip0_1664_2652)">
<path d="M143.48 152.986C157.188 128.872 183.337 110.357 211.017 112.14C190.599 134.344 178.693 163.054 177.405 193.19C176.951 204.815 177.656 217.791 169.937 226.495C165.135 231.911 157.795 234.534 150.577 235.084C143.36 235.634 136.144 234.33 129.023 233.032L127.295 233.562C126.638 205.832 129.772 177.1 143.48 152.986Z" fill="#F0F0F0"/>
<path d="M211.058 112.721C190.589 122.575 173.135 139.032 162.421 159.103C160.104 163.442 158.132 168.045 157.272 172.913C156.411 177.782 157.012 182.417 158.676 187.042C160.196 191.27 162.241 195.419 162.707 199.943C163.199 204.712 161.444 209.171 158.286 212.709C154.421 217.039 149.232 219.722 144.066 222.169C138.33 224.887 132.329 227.618 128.266 232.69C127.774 233.304 126.849 232.505 127.34 231.891C134.409 223.068 146.508 221.409 154.899 214.301C158.814 210.984 161.753 206.468 161.568 201.176C161.405 196.548 159.3 192.268 157.724 188C156.068 183.519 155.243 179.013 155.837 174.235C156.444 169.348 158.24 164.658 160.435 160.278C165.386 150.402 172.162 141.334 179.924 133.496C188.844 124.486 199.24 117.068 210.662 111.564C211.369 111.224 211.761 112.383 211.058 112.721Z" fill="white"/>
<path d="M165.559 152.395C162.421 150.1 160.201 146.765 159.295 142.985C158.389 139.205 158.857 135.225 160.614 131.758C160.972 131.057 162.077 131.581 161.718 132.282C160.076 135.508 159.641 139.215 160.492 142.733C161.343 146.252 163.423 149.35 166.358 151.47C166.995 151.931 166.193 152.854 165.559 152.395Z" fill="white"/>
<path d="M157.622 185C165.485 183.851 172.627 179.781 177.622 173.6C178.116 172.988 179.041 173.787 178.547 174.399C173.337 180.821 165.897 185.042 157.712 186.219C156.932 186.331 156.846 185.111 157.622 185V185Z" fill="white"/>
<path d="M189.448 125.99C190.477 127.131 191.774 127.998 193.221 128.514C194.668 129.03 196.221 129.179 197.74 128.946C198.518 128.825 198.603 130.045 197.829 130.165C196.15 130.414 194.435 130.248 192.835 129.682C191.235 129.115 189.798 128.166 188.649 126.916C188.531 126.807 188.459 126.657 188.447 126.497C188.435 126.337 188.485 126.178 188.586 126.053C188.692 125.931 188.843 125.856 189.004 125.845C189.166 125.833 189.325 125.885 189.448 125.99Z" fill="white"/>
<path d="M266.092 188.211C265.608 188.301 265.124 188.391 264.636 188.49C258.137 189.73 251.748 191.495 245.535 193.77C245.052 193.938 244.564 194.116 244.087 194.298C229.175 199.937 215.44 208.295 203.58 218.948C198.864 223.192 194.479 227.788 190.46 232.697C184.911 239.476 179.434 247.269 172.183 251.689C171.432 252.159 170.652 252.582 169.848 252.955L128.076 235.629C128.001 235.541 127.921 235.464 127.846 235.377L126.146 234.761C126.336 234.493 126.538 234.22 126.728 233.952C126.837 233.796 126.956 233.645 127.065 233.489C127.141 233.386 127.217 233.284 127.28 233.187C127.305 233.153 127.33 233.119 127.352 233.094C127.414 232.997 127.482 232.914 127.541 232.826C128.668 231.294 129.808 229.768 130.96 228.246C130.964 228.236 130.964 228.236 130.977 228.231C139.787 216.66 149.64 205.723 160.84 196.629C161.177 196.356 161.518 196.073 161.874 195.807C166.945 191.736 172.341 188.086 178.006 184.894C181.114 183.157 184.308 181.577 187.576 180.162C196.026 176.523 204.997 174.235 214.158 173.383C232.421 171.687 251.023 175.851 265.031 187.324C265.389 187.618 265.738 187.908 266.092 188.211Z" fill="#F0F0F0"/>
<path d="M265.778 188.702C243.502 184.246 219.658 186.878 199.019 196.453C194.557 198.523 190.211 201.011 186.594 204.379C182.975 207.749 180.664 211.812 179.207 216.506C177.876 220.797 177.011 225.341 174.659 229.234C172.18 233.337 168.095 235.841 163.443 236.765C157.751 237.895 151.992 236.913 146.393 235.757C140.177 234.473 133.741 233.041 127.444 234.644C126.681 234.839 126.424 233.643 127.186 233.449C138.142 230.66 148.801 236.62 159.78 235.997C164.903 235.706 169.969 233.869 173.007 229.532C175.664 225.739 176.56 221.054 177.871 216.697C179.247 212.123 181.301 208.028 184.651 204.571C188.079 201.034 192.337 198.371 196.726 196.196C206.626 191.291 217.495 188.13 228.412 186.545C240.959 184.722 253.725 185.059 266.159 187.54C266.928 187.694 266.543 188.855 265.778 188.702V188.702Z" fill="white"/>
<path d="M205.564 192.986C204.44 189.265 204.675 185.265 206.228 181.702C207.78 178.138 210.549 175.242 214.04 173.531C214.748 173.188 215.315 174.271 214.607 174.615C211.353 176.202 208.774 178.9 207.335 182.221C205.896 185.543 205.691 189.27 206.759 192.729C206.99 193.48 205.793 193.734 205.564 192.986Z" fill="white"/>
<path d="M179.596 214.241C186.566 218.058 194.719 219.107 202.428 217.18C203.192 216.989 203.449 218.184 202.686 218.375C194.66 220.366 186.178 219.256 178.933 215.269C178.243 214.888 178.91 213.863 179.596 214.241Z" fill="white"/>
<path d="M240.535 186.287C240.67 187.817 241.183 189.29 242.028 190.573C242.873 191.857 244.023 192.91 245.376 193.639C246.07 194.01 245.403 195.035 244.713 194.666C243.222 193.854 241.953 192.689 241.017 191.273C240.08 189.858 239.505 188.234 239.34 186.545C239.311 186.387 239.344 186.224 239.431 186.089C239.518 185.954 239.653 185.857 239.809 185.818C239.967 185.785 240.132 185.815 240.268 185.903C240.404 185.991 240.5 186.129 240.535 186.287Z" fill="white"/>
<path d="M186.519 216.797C180.669 188.51 173.356 179.08 173.356 179.08L170.563 176.913L167.203 174.304L167.22 173.968L166.423 173.697L166.236 173.552L165.929 173.317L165.88 173.37L165.775 173.477L150.573 168.31L131.286 161.759L122.355 150.15C120.901 148.26 119.028 146.732 116.884 145.686C114.741 144.64 112.384 144.105 109.998 144.123L81.4757 144.334C77.6191 144.362 73.9127 145.833 71.0851 148.455L52.3376 165.845L23.1255 179.797L23.0762 179.747L22.7695 179.966L18.2559 182.125L18.4422 183.094L15.6486 185.11C15.6486 185.11 8.336 193.885 2.4859 220.205C0.997699 226.902 0.265153 241.268 0.000743047 258.971C-0.0125382 259.866 0.152343 260.755 0.485795 261.587C0.819247 262.418 1.31462 263.174 1.94311 263.812C2.5716 264.451 3.32066 264.957 4.14675 265.303C4.97284 265.649 5.85947 265.828 6.75509 265.828H162.783L182.257 265.828C183.152 265.827 184.038 265.649 184.864 265.304C185.689 264.958 186.438 264.452 187.066 263.815C187.695 263.177 188.19 262.422 188.524 261.591C188.858 260.761 189.024 259.872 189.011 258.977C188.753 239.714 188.021 224.059 186.519 216.797Z" fill="#0052CC"/>
<path d="M206.538 24.6678C200.468 24.6678 194.646 27.0793 190.354 31.3717C186.061 35.6641 183.65 41.4859 183.65 47.5563C183.65 53.6267 186.061 59.4484 190.354 63.7408C194.646 68.0333 200.468 70.4447 206.538 70.4447H377.112C383.182 70.4447 389.004 68.0333 393.296 63.7408C397.589 59.4484 400 53.6267 400 47.5563C400 41.4859 397.589 35.6641 393.296 31.3717C389.004 27.0793 383.182 24.6678 377.112 24.6678H206.538Z" fill="#E5E5E5"/>
<path d="M206.538 29.3C201.696 29.3 197.053 31.2234 193.629 34.6471C190.205 38.0708 188.282 42.7144 188.282 47.5562C188.282 52.3981 190.205 57.0417 193.629 60.4654C197.053 63.8891 201.696 65.8125 206.538 65.8125H377.112C381.953 65.8125 386.597 63.8891 390.021 60.4654C393.444 57.0417 395.368 52.3981 395.368 47.5562C395.368 42.7144 393.444 38.0708 390.021 34.6471C386.597 31.2234 381.953 29.3 377.112 29.3H206.538Z" fill="white"/>
<path d="M100.216 133.408C120.854 133.408 137.584 116.678 137.584 96.0402C137.584 75.4028 120.854 58.6729 100.216 58.6729C79.5788 58.6729 62.8489 75.4028 62.8489 96.0402C62.8489 116.678 79.5788 133.408 100.216 133.408Z" fill="#9E616A"/>
<path d="M90.6568 131.578C90.4971 131.226 90.338 130.874 90.1792 130.52C90.2404 130.522 90.301 130.531 90.3621 130.532L90.6568 131.578Z" fill="#2F2E41"/>
<path d="M61.8097 60.3721C63.6997 58.8645 65.9085 57.4773 68.3249 57.5553C70.7412 57.6331 73.1915 59.8155 72.6909 62.1807C77.1292 54.3223 84.1937 48.2783 92.6443 45.1095C101.095 41.9408 110.392 41.8498 118.903 44.8526C124.908 46.9714 130.798 51.2103 132.177 57.4275C132.531 59.0234 132.607 60.7734 133.604 62.0694C134.86 63.7033 137.264 64.073 139.243 63.4982C139.263 63.4924 139.283 63.4866 139.303 63.4807C139.637 63.3665 139.998 63.3553 140.339 63.4485C140.68 63.5417 140.985 63.735 141.215 64.0034C141.444 64.2719 141.588 64.6031 141.628 64.9542C141.667 65.3053 141.601 65.6603 141.436 65.973L139.737 69.1422C141.879 69.6196 144.105 69.5723 146.224 69.0042C146.577 68.9118 146.949 68.9307 147.29 69.0582C147.631 69.1856 147.924 69.4155 148.129 69.7162C148.334 70.0169 148.441 70.3737 148.436 70.7377C148.43 71.1018 148.312 71.4551 148.098 71.7493C142.494 79.4421 133.133 84.4097 123.581 84.3514C116.791 84.3099 109.932 81.97 103.324 83.5313C100.768 84.1353 98.3794 85.304 96.3337 86.9515C94.288 88.5991 92.6371 90.6837 91.5022 93.0525C90.3672 95.4213 89.777 98.0141 89.7748 100.641C89.7727 103.267 90.3586 105.861 91.4896 108.232C89.4597 106.012 85.5357 106.537 83.4592 108.714C81.3828 110.891 80.8453 114.14 81.0545 117.142C81.3744 121.732 83.1729 126.057 85.0688 130.266C69.1732 129.766 54.1385 118.615 49.0778 103.534C43.9959 88.3895 49.3219 70.334 61.8097 60.3721Z" fill="#2F2E41"/>
<path opacity="0.2" d="M36.7791 208.257L47.2597 265.28L53.5484 265.828L36.7791 208.257Z" fill="black"/>
<path opacity="0.2" d="M152.226 203.956L141.745 265.239L135.457 265.828L152.226 203.956Z" fill="black"/>
<path d="M70.7488 41.181C68.7393 42.0201 66.6424 41.1005 65.7631 38.9945C64.8702 36.8564 65.7041 34.6858 67.7458 33.8333C69.7878 32.9807 71.8473 33.9025 72.7545 36.0752C73.6481 38.2152 72.8233 40.3148 70.7488 41.181ZM66.8994 29.6247L65.3016 30.2919C64.9025 30.4566 64.456 30.4654 64.0506 30.3167C63.6452 30.1681 63.3104 29.8726 63.1124 29.4889L63.0334 29.3343C61.3142 26.2338 61.1173 22.4655 62.4514 18.1401C63.6873 14.2599 64.2006 11.5311 63.1683 9.05884C61.9747 6.20049 59.4261 5.3051 56.176 6.60217C54.9154 7.12853 54.5143 7.12014 53.5223 8.10421C53.3065 8.32087 53.0493 8.49186 52.766 8.60698C52.4827 8.7221 52.1791 8.77899 51.8734 8.77426C51.5778 8.77078 51.286 8.70782 51.0153 8.58912C50.7446 8.47042 50.5005 8.29841 50.2977 8.08337C49.907 7.66895 49.6881 7.1217 49.6852 6.55214C49.6823 5.98258 49.8957 5.43314 50.2822 5.0148C51.9496 3.26938 53.9607 1.88853 56.1885 0.959392C63.1716 -1.95652 66.687 2.3484 68.2957 6.2009C69.8691 9.96909 68.984 13.4653 67.5619 17.9933C66.3701 21.7558 66.4395 24.5438 67.7933 27.3158C67.891 27.5254 67.9454 27.7526 67.9532 27.9837C67.9609 28.2148 67.9219 28.4451 67.8384 28.6607C67.7549 28.8764 67.6287 29.0729 67.4673 29.2386C67.306 29.4042 67.1128 29.5355 66.8994 29.6247L66.8994 29.6247Z" fill="#0052CC"/>
<path d="M244.216 58.4725H210.278C210.17 58.4732 210.063 58.4526 209.963 58.4119C209.864 58.3711 209.773 58.311 209.696 58.235C209.62 58.1591 209.559 58.0687 209.518 57.9692C209.476 57.8696 209.455 57.7629 209.455 57.655C209.455 57.5472 209.476 57.4405 209.518 57.3409C209.559 57.2414 209.62 57.151 209.696 57.075C209.773 56.9991 209.864 56.939 209.963 56.8982C210.063 56.8575 210.17 56.8369 210.278 56.8376H244.216C244.432 56.8391 244.638 56.9258 244.79 57.079C244.942 57.2321 245.028 57.4392 245.028 57.655C245.028 57.8709 244.942 58.078 244.79 58.2311C244.638 58.3842 244.432 58.471 244.216 58.4725Z" fill="#0052CC"/>
<path d="M287.268 58.745H253.33C253.222 58.7457 253.115 58.7251 253.015 58.6843C252.916 58.6436 252.825 58.5835 252.748 58.5075C252.672 58.4315 252.611 58.3412 252.57 58.2416C252.528 58.1421 252.507 58.0353 252.507 57.9275C252.507 57.8197 252.528 57.7129 252.57 57.6134C252.611 57.5139 252.672 57.4235 252.748 57.3475C252.825 57.2715 252.916 57.2114 253.015 57.1707C253.115 57.1299 253.222 57.1093 253.33 57.1101H287.268C287.376 57.1093 287.482 57.1299 287.582 57.1707C287.682 57.2114 287.773 57.2715 287.849 57.3475C287.926 57.4235 287.987 57.5139 288.028 57.6134C288.069 57.7129 288.091 57.8197 288.091 57.9275C288.091 58.0353 288.069 58.1421 288.028 58.2416C287.987 58.3412 287.926 58.4315 287.849 58.5075C287.773 58.5835 287.682 58.6436 287.582 58.6843C287.482 58.7251 287.376 58.7457 287.268 58.745Z" fill="#0052CC"/>
<path d="M330.32 59.0174H296.382C296.166 59.0159 295.96 58.9292 295.808 58.776C295.655 58.6229 295.57 58.4158 295.57 58.2C295.57 57.9841 295.655 57.777 295.808 57.6239C295.96 57.4708 296.166 57.384 296.382 57.3825H330.32C330.428 57.3818 330.534 57.4024 330.634 57.4431C330.734 57.4839 330.825 57.544 330.901 57.62C330.978 57.696 331.039 57.7863 331.08 57.8859C331.121 57.9854 331.143 58.0921 331.143 58.2C331.143 58.3078 331.121 58.4145 331.08 58.5141C331.039 58.6136 330.978 58.704 330.901 58.78C330.825 58.8559 330.734 58.916 330.634 58.9568C330.534 58.9975 330.428 59.0181 330.32 59.0174H330.32Z" fill="#0052CC"/>
<path d="M373.372 59.2899H339.434C339.218 59.2884 339.012 59.2017 338.86 59.0485C338.708 58.8954 338.622 58.6883 338.622 58.4725C338.622 58.2566 338.708 58.0495 338.86 57.8964C339.012 57.7433 339.218 57.6565 339.434 57.655H373.372C373.588 57.6565 373.794 57.7433 373.946 57.8964C374.098 58.0495 374.184 58.2566 374.184 58.4725C374.184 58.6883 374.098 58.8954 373.946 59.0485C373.794 59.2017 373.588 59.2884 373.372 59.2899Z" fill="#0052CC"/>
<path d="M227.172 50.9494C230.656 50.9494 233.48 48.1254 233.48 44.6418C233.48 41.1582 230.656 38.3342 227.172 38.3342C223.689 38.3342 220.865 41.1582 220.865 44.6418C220.865 48.1254 223.689 50.9494 227.172 50.9494Z" fill="#0052CC"/>
<path d="M270.484 50.9494C273.968 50.9494 276.792 48.1254 276.792 44.6418C276.792 41.1582 273.968 38.3342 270.484 38.3342C267.001 38.3342 264.177 41.1582 264.177 44.6418C264.177 48.1254 267.001 50.9494 270.484 50.9494Z" fill="#0052CC"/>
<path d="M313.796 50.9494C317.28 50.9494 320.104 48.1254 320.104 44.6418C320.104 41.1582 317.28 38.3342 313.796 38.3342C310.313 38.3342 307.489 41.1582 307.489 44.6418C307.489 48.1254 310.313 50.9494 313.796 50.9494Z" fill="#0052CC"/>
<path d="M357.108 50.9494C360.592 50.9494 363.416 48.1254 363.416 44.6418C363.416 41.1582 360.592 38.3342 357.108 38.3342C353.625 38.3342 350.801 41.1582 350.801 44.6418C350.801 48.1254 353.625 50.9494 357.108 50.9494Z" fill="#0052CC"/>
</g>
<defs>
<clipPath id="clip0_1664_2652">
<rect width="400" height="265.828" fill="white"/>
</clipPath>
</defs>
</svg>
