<svg width="72" height="72" viewBox="0 0 72 72" fill="none" xmlns="http://www.w3.org/2000/svg">
<path d="M36 4.5C18.6047 4.5 4.5 18.6047 4.5 36C4.5 53.3953 18.6047 67.5 36 67.5C53.3953 67.5 67.5 53.3953 67.5 36C67.5 18.6047 53.3953 4.5 36 4.5ZM36 62.1562C21.5578 62.1562 9.84375 50.4422 9.84375 36C9.84375 21.5578 21.5578 9.84375 36 9.84375C50.4422 9.84375 62.1562 21.5578 62.1562 36C62.1562 50.4422 50.4422 62.1562 36 62.1562Z" fill="#F44335"/>
<path d="M36 9.84375C21.5578 9.84375 9.84375 21.5578 9.84375 36C9.84375 50.4422 21.5578 62.1562 36 62.1562C50.4422 62.1562 62.1562 50.4422 62.1562 36C62.1562 21.5578 50.4422 9.84375 36 9.84375ZM38.25 51.1875C38.25 51.4969 37.9969 51.75 37.6875 51.75H34.3125C34.0031 51.75 33.75 51.4969 33.75 51.1875V32.0625C33.75 31.7531 34.0031 31.5 34.3125 31.5H37.6875C37.9969 31.5 38.25 31.7531 38.25 32.0625V51.1875ZM36 27C35.1168 26.982 34.2759 26.6185 33.6577 25.9875C33.0395 25.3565 32.6932 24.5084 32.6932 23.625C32.6932 22.7416 33.0395 21.8935 33.6577 21.2625C34.2759 20.6315 35.1168 20.268 36 20.25C36.8832 20.268 37.7241 20.6315 38.3423 21.2625C38.9605 21.8935 39.3068 22.7416 39.3068 23.625C39.3068 24.5084 38.9605 25.3565 38.3423 25.9875C37.7241 26.6185 36.8832 26.982 36 27Z" fill="#FFC3BD" fill-opacity="0.25"/>
<path d="M32.625 23.625C32.625 24.5201 32.9806 25.3786 33.6135 26.0115C34.2464 26.6444 35.1049 27 36 27C36.8951 27 37.7535 26.6444 38.3865 26.0115C39.0194 25.3786 39.375 24.5201 39.375 23.625C39.375 22.7299 39.0194 21.8714 38.3865 21.2385C37.7535 20.6056 36.8951 20.25 36 20.25C35.1049 20.25 34.2464 20.6056 33.6135 21.2385C32.9806 21.8714 32.625 22.7299 32.625 23.625ZM37.6875 31.5H34.3125C34.0031 31.5 33.75 31.7531 33.75 32.0625V51.1875C33.75 51.4969 34.0031 51.75 34.3125 51.75H37.6875C37.9969 51.75 38.25 51.4969 38.25 51.1875V32.0625C38.25 31.7531 37.9969 31.5 37.6875 31.5Z" fill="#F44335"/>
</svg>
