<svg width="50" height="50" viewBox="0 0 50 50" fill="none" xmlns="http://www.w3.org/2000/svg">
<path d="M43.7503 23.9583L46.8753 27.0833L32.3128 41.6666L22.917 32.2916L26.042 29.1666L32.3128 35.4166L43.7503 23.9583Z" fill="#0052CC"/>
<path opacity="0.3" d="M35.417 10.4167V16.6667H14.5837V10.4167H10.417V39.5834H24.3337L17.0212 32.2917L26.042 23.2709L32.3128 29.5209L39.5837 22.2292V10.4167H35.417Z" fill="#0052CC"/>
<path d="M10.4167 39.5833V10.4166H14.5833V16.6666H35.4167V10.4166H39.5833V22.2291L43.75 18.0624V10.4166C43.75 8.12492 41.875 6.24992 39.5833 6.24992H30.875C30 3.83325 27.7083 2.08325 25 2.08325C22.2917 2.08325 20 3.83325 19.125 6.24992H10.4167C8.125 6.24992 6.25 8.12492 6.25 10.4166V39.5833C6.25 41.8749 8.125 43.7499 10.4167 43.7499H28.5L24.3333 39.5833H10.4167ZM25 6.24992C26.1458 6.24992 27.0833 7.18742 27.0833 8.33325C27.0833 9.47908 26.1458 10.4166 25 10.4166C23.8542 10.4166 22.9167 9.47908 22.9167 8.33325C22.9167 7.18742 23.8542 6.24992 25 6.24992Z" fill="#0052CC"/>
</svg>
