<svg width="50" height="50" viewBox="0 0 50 50" fill="none" xmlns="http://www.w3.org/2000/svg">
<path d="M37.5 16.6673H41.6667C42.2192 16.6673 42.7491 16.8868 43.1398 17.2775C43.5305 17.6682 43.75 18.1981 43.75 18.7507V43.7506C43.75 44.3032 43.5305 44.8331 43.1398 45.2238C42.7491 45.6145 42.2192 45.834 41.6667 45.834H8.33333C7.7808 45.834 7.25089 45.6145 6.86019 45.2238C6.46949 44.8331 6.25 44.3032 6.25 43.7506V18.7507C6.25 18.1981 6.46949 17.6682 6.86019 17.2775C7.25089 16.8868 7.7808 16.6673 8.33333 16.6673H12.5V14.584C12.5 11.2688 13.817 8.08935 16.1612 5.74515C18.5054 3.40094 21.6848 2.08398 25 2.08398C28.3152 2.08398 31.4946 3.40094 33.8388 5.74515C36.183 8.08935 37.5 11.2688 37.5 14.584V16.6673ZM10.4167 20.834V41.6673H39.5833V20.834H10.4167ZM22.9167 29.1673H27.0833V33.334H22.9167V29.1673ZM14.5833 29.1673H18.75V33.334H14.5833V29.1673ZM31.25 29.1673H35.4167V33.334H31.25V29.1673ZM33.3333 16.6673V14.584C33.3333 12.3738 32.4554 10.2542 30.8926 8.69143C29.3298 7.12862 27.2101 6.25065 25 6.25065C22.7899 6.25065 20.6702 7.12862 19.1074 8.69143C17.5446 10.2542 16.6667 12.3738 16.6667 14.584V16.6673H33.3333Z" fill="#0052CC"/>
</svg>
