<svg width="514" height="417" viewBox="0 0 514 417" fill="none" xmlns="http://www.w3.org/2000/svg">
<path d="M514 366.453H0V366.733H514V366.453Z" fill="#EBEBEB"/>
<path d="M445.937 378.362H411.889V378.642H445.937V378.362Z" fill="#EBEBEB"/>
<path d="M321.836 378.228H312.902V378.508H321.836V378.228Z" fill="#EBEBEB"/>
<path d="M462.497 384.462H442.77V384.742H462.497V384.462Z" fill="#EBEBEB"/>
<path d="M117.809 388.178H73.4097V388.458H117.809V388.178Z" fill="#EBEBEB"/>
<path d="M113.995 375.956H107.488V376.236H113.995V375.956Z" fill="#EBEBEB"/>
<path d="M255.406 377.154H192.801V377.433H255.406V377.154Z" fill="#EBEBEB"/>
<path d="M243.636 316.533H45.1394C43.5844 316.53 42.094 315.856 40.9954 314.657C39.8968 313.459 39.2798 311.835 39.2798 310.142V6.33514C39.2933 4.65177 39.9163 3.04219 41.0134 1.85602C42.1106 0.669844 43.5932 0.00288371 45.1394 0H243.636C245.193 0 246.686 0.673347 247.787 1.87191C248.887 3.07048 249.506 4.69608 249.506 6.3911V310.142C249.506 311.837 248.887 313.463 247.787 314.661C246.686 315.86 245.193 316.533 243.636 316.533ZM45.1394 0.223857C43.6525 0.226822 42.2275 0.871994 41.1771 2.01776C40.1267 3.16353 39.5368 4.71626 39.5368 6.33514V310.142C39.5368 311.761 40.1267 313.314 41.1771 314.459C42.2275 315.605 43.6525 316.25 45.1394 316.253H243.636C245.124 316.25 246.55 315.606 247.602 314.46C248.654 313.315 249.246 311.762 249.249 310.142V6.33514C249.246 4.71524 248.654 3.16252 247.602 2.01708C246.55 0.871631 245.124 0.226816 243.636 0.223857H45.1394Z" fill="#EBEBEB"/>
<path d="M466.003 316.533H267.496C265.94 316.53 264.448 315.856 263.348 314.658C262.248 313.46 261.629 311.836 261.626 310.142V6.33514C261.642 4.65075 262.267 3.04118 263.366 1.85531C264.465 0.669453 265.949 0.00285226 267.496 0H466.003C467.547 0.0058253 469.027 0.674087 470.122 1.85994C471.217 3.0458 471.838 4.6537 471.852 6.33514V310.142C471.852 311.833 471.236 313.455 470.14 314.653C469.044 315.851 467.556 316.527 466.003 316.533ZM267.496 0.223857C266.008 0.226816 264.582 0.871631 263.53 2.01708C262.478 3.16252 261.886 4.71524 261.883 6.33514V310.142C261.886 311.762 262.478 313.315 263.53 314.46C264.582 315.606 266.008 316.25 267.496 316.253H466.003C467.49 316.25 468.917 315.606 469.969 314.46C471.021 313.315 471.613 311.762 471.616 310.142V6.33514C471.613 4.71524 471.021 3.16252 469.969 2.01708C468.917 0.871631 467.49 0.226816 466.003 0.223857H267.496Z" fill="#EBEBEB"/>
<path d="M440.899 46.26H73.1011V212.91H440.899V46.26Z" fill="#F0F0F0"/>
<path d="M433.703 205.086V54.1062L80.2968 54.1062V205.086L433.703 205.086Z" fill="#FAFAFA"/>
<path d="M126.824 205.075L163.072 54.095H189.799L153.552 205.075H126.824Z" fill="white"/>
<path d="M159.72 205.075L195.968 54.095H207.923L171.676 205.075H159.72Z" fill="white"/>
<path d="M218.213 205.075L254.471 54.095H281.199L244.941 205.075H218.213Z" fill="white"/>
<path d="M285.609 205.075L321.857 54.095H333.823L297.565 205.075H285.609Z" fill="white"/>
<path d="M174.976 205.086V54.1062H173.146V205.086H174.976Z" fill="#E0E0E0"/>
<path d="M82.1274 205.086L82.1274 54.1062H80.2976L80.2976 205.086H82.1274Z" fill="#E0E0E0"/>
<path d="M173.146 205.086V54.1062H165.95V205.086H173.146Z" fill="#F0F0F0"/>
<path d="M264.196 205.086V54.1062H262.366V205.086H264.196Z" fill="#E0E0E0"/>
<path d="M262.367 205.086V54.1062H255.171V205.086H262.367Z" fill="#F0F0F0"/>
<path d="M353.458 205.075V54.095H351.628V205.075H353.458Z" fill="#E0E0E0"/>
<path d="M351.627 205.075V54.095H344.431V205.075H351.627Z" fill="#F0F0F0"/>
<path d="M442.729 212.91V46.26H440.9V212.91H442.729Z" fill="#E0E0E0"/>
<path d="M446.841 34.8208H67.1593C66.7376 34.8179 66.3338 34.6342 66.0356 34.3094C65.7374 33.9847 65.5686 33.5451 65.5659 33.0859C65.5659 32.6248 65.7335 32.1823 66.032 31.8552C66.3305 31.5281 66.7358 31.3428 67.1593 31.3398H446.841C447.264 31.3428 447.67 31.5281 447.968 31.8552C448.267 32.1823 448.434 32.6248 448.434 33.0859C448.432 33.5451 448.263 33.9847 447.965 34.3094C447.666 34.6342 447.263 34.8179 446.841 34.8208Z" fill="#E0E0E0"/>
<g opacity="0.6">
<path d="M146.326 27.9819H68.6499V332.058H146.326V27.9819Z" fill="#F5F5F5"/>
<path d="M110.736 334.542H104.229L106.058 30.4668H108.968L110.736 334.542Z" fill="#E6E6E6"/>
<path d="M89.1789 334.542H86.0332L86.9173 30.4668H88.3256L89.1789 334.542Z" fill="#E6E6E6"/>
<path d="M132.355 334.542H129.209L130.094 30.4668H131.502L132.355 334.542Z" fill="#E6E6E6"/>
</g>
<g opacity="0.6">
<path d="M444.425 27.9819H366.75V332.058H444.425V27.9819Z" fill="#F5F5F5"/>
<path d="M397.188 334.542H390.681L392.511 30.4668H395.42L397.188 334.542Z" fill="#E6E6E6"/>
<path d="M382.827 334.542H379.692L380.566 30.4668H381.974L382.827 334.542Z" fill="#E6E6E6"/>
<path d="M416.063 334.542H412.927L413.811 30.4668H415.209L416.063 334.542Z" fill="#E6E6E6"/>
<path d="M432.058 334.542H428.923L429.797 30.4668H431.205L432.058 334.542Z" fill="#E6E6E6"/>
</g>
<path d="M334.316 364.55H348.914V273.463H334.316V364.55Z" fill="#E6E6E6"/>
<path d="M165.086 364.55H339.939V273.463H165.086V364.55Z" fill="#F0F0F0"/>
<path d="M336.012 364.55H330.749H172.632V366.453H330.749H336.012H341.368V364.55H336.012Z" fill="#E0E0E0"/>
<path opacity="0.5" d="M170.072 315.917H334.953V279.16H170.072V315.917Z" fill="#FAFAFA"/>
<path opacity="0.5" d="M170.072 358.607H334.953V321.85H170.072V358.607Z" fill="#FAFAFA"/>
<path d="M195.063 297.539C195.063 298.338 194.846 299.119 194.438 299.784C194.03 300.448 193.45 300.966 192.772 301.272C192.094 301.578 191.348 301.658 190.628 301.502C189.908 301.346 189.247 300.961 188.728 300.396C188.209 299.831 187.856 299.111 187.712 298.327C187.569 297.543 187.643 296.731 187.924 295.993C188.204 295.254 188.68 294.623 189.29 294.179C189.901 293.735 190.618 293.498 191.352 293.498C191.84 293.498 192.322 293.603 192.772 293.806C193.223 294.009 193.632 294.307 193.976 294.682C194.321 295.057 194.594 295.502 194.781 295.993C194.967 296.483 195.063 297.008 195.063 297.539Z" fill="#E0E0E0"/>
<path d="M317.375 297.539C317.375 298.338 317.157 299.119 316.749 299.784C316.342 300.448 315.762 300.966 315.084 301.272C314.406 301.578 313.66 301.658 312.94 301.502C312.22 301.346 311.559 300.961 311.04 300.396C310.521 299.831 310.167 299.111 310.024 298.327C309.881 297.543 309.954 296.731 310.235 295.993C310.516 295.254 310.992 294.623 311.602 294.179C312.212 293.735 312.93 293.498 313.664 293.498C314.151 293.498 314.634 293.603 315.084 293.806C315.534 294.009 315.943 294.307 316.288 294.682C316.632 295.057 316.906 295.502 317.092 295.993C317.279 296.483 317.375 297.008 317.375 297.539Z" fill="#E0E0E0"/>
<path d="M191.352 344.269C193.402 344.269 195.063 342.46 195.063 340.228C195.063 337.997 193.402 336.188 191.352 336.188C189.303 336.188 187.641 337.997 187.641 340.228C187.641 342.46 189.303 344.269 191.352 344.269Z" fill="#E0E0E0"/>
<path d="M317.375 340.262C317.375 341.061 317.157 341.842 316.749 342.507C316.342 343.171 315.762 343.689 315.084 343.995C314.406 344.301 313.66 344.381 312.94 344.225C312.22 344.069 311.559 343.684 311.04 343.119C310.521 342.554 310.167 341.834 310.024 341.05C309.881 340.267 309.954 339.454 310.235 338.716C310.516 337.977 310.992 337.346 311.602 336.902C312.212 336.458 312.93 336.221 313.664 336.221C314.648 336.221 315.592 336.647 316.288 337.405C316.984 338.163 317.375 339.19 317.375 340.262Z" fill="#E0E0E0"/>
<path d="M256.219 297.539C256.219 298.338 256.001 299.119 255.593 299.784C255.185 300.448 254.606 300.966 253.928 301.272C253.25 301.578 252.503 301.658 251.783 301.502C251.064 301.346 250.402 300.961 249.883 300.396C249.364 299.831 249.011 299.111 248.868 298.327C248.725 297.543 248.798 296.731 249.079 295.993C249.36 295.254 249.835 294.623 250.446 294.179C251.056 293.735 251.773 293.498 252.507 293.498C252.995 293.498 253.477 293.603 253.928 293.806C254.378 294.009 254.787 294.307 255.132 294.682C255.476 295.057 255.75 295.502 255.936 295.993C256.123 296.483 256.219 297.008 256.219 297.539Z" fill="#E0E0E0"/>
<path d="M252.507 344.269C254.557 344.269 256.219 342.46 256.219 340.228C256.219 337.997 254.557 336.188 252.507 336.188C250.458 336.188 248.796 337.997 248.796 340.228C248.796 342.46 250.458 344.269 252.507 344.269Z" fill="#E0E0E0"/>
<path d="M329.124 257.995C329.124 262.097 327.628 266.032 324.963 268.933C322.299 271.833 318.685 273.463 314.917 273.463C311.149 273.463 307.536 271.833 304.872 268.933C302.207 266.032 300.71 262.097 300.71 257.995H329.124Z" fill="#F0F0F0"/>
<path d="M216.795 255.197C216.795 260.032 215.031 264.67 211.89 268.089C208.75 271.509 204.49 273.43 200.049 273.43C195.608 273.43 191.348 271.509 188.208 268.089C185.067 264.67 183.303 260.032 183.303 255.197H216.795Z" fill="#F0F0F0"/>
<path d="M288.786 262.729C288.786 265.576 287.747 268.306 285.898 270.319C284.05 272.332 281.542 273.463 278.927 273.463C276.313 273.463 273.805 272.332 271.956 270.319C270.108 268.306 269.069 265.576 269.069 262.729H288.786Z" fill="#F0F0F0"/>
<path d="M257 417C367.081 417 456.319 411.328 456.319 404.33C456.319 397.332 367.081 391.66 257 391.66C146.919 391.66 57.6812 397.332 57.6812 404.33C57.6812 411.328 146.919 417 257 417Z" fill="#F5F5F5"/>
<path d="M357.898 67.56C355.709 65.176 351.494 56.1433 355.534 51.8901C359.574 47.6368 363.172 51.4983 363.45 53.569C363.727 55.6397 362.987 73.0893 357.898 67.56Z" fill="#263238"/>
<path d="M356.972 392.476L347.792 392.566L345.294 369.464L354.464 369.375L356.972 392.476Z" fill="#FF8B7B"/>
<path d="M347.782 391.413L357.795 391.312C357.98 391.315 358.159 391.382 358.307 391.503C358.454 391.623 358.563 391.792 358.617 391.984L361.044 400.838C361.108 401.044 361.126 401.264 361.096 401.479C361.066 401.694 360.988 401.898 360.87 402.074C360.752 402.25 360.597 402.392 360.418 402.488C360.239 402.585 360.041 402.633 359.841 402.628C356.233 402.628 350.99 402.416 346.477 402.461C341.172 402.461 338.808 402.864 332.578 402.931C328.816 402.931 327.438 398.834 329.032 398.454C336.094 396.674 339.743 396.439 345.654 392.219C346.276 391.731 347.016 391.45 347.782 391.413Z" fill="#263238"/>
<path opacity="0.2" d="M345.294 369.475L346.59 381.384L355.759 381.295L354.474 369.386L345.294 369.475Z" fill="black"/>
<path d="M343.989 393.193C344.979 393.174 345.964 393.042 346.929 392.801C346.975 392.794 347.017 392.77 347.049 392.733C347.08 392.697 347.1 392.65 347.104 392.6C347.108 392.551 347.099 392.503 347.076 392.461C347.054 392.419 347.021 392.385 346.981 392.365C346.549 392.13 342.694 390.126 341.635 390.831C341.537 390.899 341.457 390.994 341.403 391.106C341.349 391.218 341.323 391.343 341.327 391.469C341.324 391.685 341.367 391.898 341.453 392.092C341.539 392.286 341.664 392.456 341.82 392.589C342.463 393.043 343.225 393.255 343.989 393.193ZM346.189 392.477C344.205 392.857 342.694 392.779 342.077 392.242C341.97 392.151 341.885 392.033 341.83 391.898C341.774 391.764 341.75 391.616 341.758 391.469C341.752 391.423 341.759 391.377 341.777 391.335C341.795 391.293 341.825 391.258 341.861 391.234C342.437 390.854 344.616 391.749 346.189 392.477Z" fill="#EBCFDA"/>
<path d="M346.888 392.868C346.937 392.864 346.983 392.845 347.022 392.812C347.053 392.787 347.076 392.752 347.089 392.712C347.102 392.673 347.103 392.629 347.094 392.589C347.094 392.409 346.374 388.111 344.195 388.38C343.619 388.447 343.455 388.772 343.424 389.018C343.27 390.137 345.624 392.309 346.796 392.846L346.888 392.868ZM344.38 388.839C345.696 388.839 346.354 391.178 346.58 392.197C345.367 391.458 343.763 389.757 343.855 389.085C343.855 389.085 343.855 388.895 344.246 388.85L344.38 388.839Z" fill="#EBCFDA"/>
<path d="M350.486 118.006L349.54 119.125L348.656 120.076C348.07 120.703 347.464 121.296 346.857 121.878C345.651 123.057 344.417 124.177 343.156 125.236C340.612 127.438 337.933 129.45 335.138 131.258C333.73 132.165 332.28 133.027 330.81 133.844C329.34 134.661 327.788 135.366 326.225 136.082C323.021 137.474 319.683 138.469 316.274 139.048L315.514 139.171C315.019 139.241 314.521 139.274 314.023 139.272C312.878 139.26 311.745 139.018 310.682 138.556C309.627 138.095 308.662 137.423 307.834 136.575C307.175 135.891 306.602 135.115 306.128 134.269C305.471 133.041 304.977 131.718 304.658 130.34C304.409 129.273 304.227 128.189 304.113 127.094C303.926 125.203 303.874 123.298 303.959 121.397C304.031 119.584 304.164 117.838 304.349 116.125C304.74 112.689 305.295 109.41 305.974 106.052C306.652 102.694 307.423 99.5936 308.42 96.3477L315.174 97.8027C314.928 104.093 314.65 110.54 314.835 116.629C314.869 119.456 315.144 122.274 315.657 125.046C315.759 125.558 315.9 126.06 316.079 126.546C316.223 126.926 316.398 127.162 316.387 127.061C316.328 126.89 316.233 126.737 316.11 126.613C315.83 126.318 315.502 126.083 315.143 125.919C314.774 125.75 314.382 125.648 313.982 125.617C313.797 125.617 313.714 125.617 313.601 125.617H313.715L313.93 125.55C316.366 124.869 318.734 123.932 321.003 122.752C323.377 121.504 325.674 120.091 327.88 118.521C330.111 116.909 332.311 115.163 334.429 113.316C335.457 112.398 336.536 111.436 337.513 110.462L339.014 108.984L339.733 108.257L340.36 107.608L350.486 118.006Z" fill="#FF8B7B"/>
<path d="M355.924 114.055C355.575 103.5 347.618 99.8288 337.646 107.026C333.251 110.06 329.018 113.368 324.971 116.931L331.417 139.474C331.417 139.474 343.753 135.209 350.887 126.837C355.688 121.151 356.048 117.648 355.924 114.055Z" fill="#263238"/>
<path opacity="0.2" d="M343.783 118.554C343.783 118.554 337.831 127.822 335.724 137.672C338.65 136.313 341.469 134.696 344.153 132.836L343.783 118.554Z" fill="black"/>
<path d="M314.836 101.149L318.29 92.6541L308.513 89.5425C308.513 89.5425 306.838 93.6055 307.794 100.579L314.836 101.149Z" fill="#FF8B7B"/>
<path d="M319.327 82.6926L310.826 83.8007L308.513 89.5426L318.289 92.6542L319.327 82.6926Z" fill="#FF8B7B"/>
<path d="M343.846 190.569C343.846 190.569 337.534 248.167 336.835 278.993C336.115 311.015 341.882 375.609 341.882 375.609L358.443 375.228C358.443 375.228 360.437 306.079 362.843 274.392C365.454 239.851 372.033 189.942 372.033 189.942L343.846 190.569Z" fill="#EBCFDA"/>
<path opacity="0.6" d="M343.846 190.569C343.846 190.569 337.534 248.167 336.835 278.993C336.115 311.015 341.882 375.609 341.882 375.609L358.443 375.228C358.443 375.228 360.437 306.079 362.843 274.392C365.454 239.851 372.033 189.942 372.033 189.942L343.846 190.569Z" fill="white"/>
<path opacity="0.2" d="M363.572 206.877C356.171 224.64 358.155 264.319 362.359 281.332C362.514 278.858 362.678 276.519 362.843 274.359C364.559 251.592 367.983 222.166 370.152 204.739C368.137 201.56 365.885 201.314 363.572 206.877Z" fill="black"/>
<path d="M360.479 376.001L341.009 376.426L339.569 369.386L360.242 369.33L360.479 376.001Z" fill="#EBCFDA"/>
<path d="M397.877 392.476L388.708 392.566L386.209 369.464L395.379 369.375L397.877 392.476Z" fill="#FF8B7B"/>
<path d="M388.687 391.413L398.71 391.312C398.894 391.317 399.073 391.384 399.22 391.505C399.368 391.625 399.477 391.793 399.532 391.984L401.959 400.838C402.021 401.044 402.037 401.263 402.005 401.477C401.974 401.691 401.897 401.894 401.779 402.069C401.662 402.244 401.508 402.386 401.33 402.483C401.152 402.581 400.955 402.63 400.756 402.628C397.137 402.628 391.905 402.416 387.392 402.461C382.087 402.461 379.713 402.864 373.493 402.931C369.731 402.931 368.353 398.834 369.947 398.454C376.999 396.674 380.648 396.439 386.569 392.219C387.188 391.731 387.924 391.451 388.687 391.413Z" fill="#263238"/>
<path opacity="0.2" d="M386.209 369.475L387.494 381.384L396.675 381.295L395.39 369.386L386.209 369.475Z" fill="black"/>
<path d="M384.904 393.193C385.893 393.172 386.879 393.041 387.844 392.801C387.888 392.793 387.929 392.769 387.959 392.732C387.989 392.696 388.006 392.649 388.008 392.6C388.015 392.553 388.007 392.504 387.987 392.462C387.967 392.42 387.935 392.386 387.895 392.365C387.453 392.13 383.598 390.126 382.55 390.831C382.45 390.898 382.369 390.992 382.315 391.104C382.26 391.216 382.235 391.343 382.241 391.469C382.239 391.683 382.281 391.895 382.365 392.089C382.449 392.283 382.572 392.454 382.724 392.589C383.372 393.041 384.136 393.253 384.904 393.193ZM387.104 392.477C385.12 392.857 383.608 392.779 382.992 392.242C382.885 392.149 382.8 392.032 382.743 391.898C382.686 391.764 382.659 391.617 382.663 391.469C382.657 391.423 382.663 391.377 382.681 391.335C382.7 391.293 382.729 391.258 382.765 391.234C383.341 390.854 385.5 391.749 387.104 392.477Z" fill="#EBCFDA"/>
<path d="M387.792 392.868C387.824 392.867 387.855 392.859 387.884 392.844C387.912 392.828 387.937 392.807 387.957 392.781C387.978 392.754 387.993 392.724 388.002 392.69C388.01 392.657 388.013 392.623 388.008 392.589C388.008 392.409 387.289 388.111 385.109 388.38C384.534 388.447 384.369 388.772 384.328 389.018C384.184 390.137 386.538 392.309 387.71 392.846L387.792 392.868ZM385.294 388.839C386.6 388.839 387.268 391.178 387.494 392.197C386.281 391.458 384.667 389.757 384.76 389.085C384.76 389.085 384.76 388.895 385.151 388.85L385.294 388.839Z" fill="#EBCFDA"/>
<path d="M360.005 190.189C360.005 190.189 364.58 252.163 367.921 282.742C371.385 314.552 382.796 375.575 382.796 375.575L399.357 375.195C399.357 375.195 394.813 305.911 393.056 274.168C391.133 239.527 390.64 189.427 390.64 189.427L360.005 190.189Z" fill="#EBCFDA"/>
<path opacity="0.6" d="M360.005 190.189C360.005 190.189 364.58 252.163 367.921 282.742C371.385 314.552 382.796 375.575 382.796 375.575L399.357 375.195C399.357 375.195 394.813 305.911 393.056 274.168C391.133 239.527 390.64 189.427 390.64 189.427L360.005 190.189Z" fill="white"/>
<path d="M401.392 376.001L381.912 376.426L380.483 369.386L401.156 369.33L401.392 376.001Z" fill="#EBCFDA"/>
<path d="M342.705 104.261C342.705 104.261 335.93 131.639 343.846 190.569C358.628 190.222 383.455 189.595 390.64 189.45C390.825 181.245 385.264 141.018 391.771 102.235C387.09 101.355 382.355 100.854 377.605 100.735C370.653 100.459 363.692 100.624 356.757 101.228C352.008 101.84 347.309 102.854 342.705 104.261Z" fill="#263238"/>
<path opacity="0.2" d="M388.933 129.837L381.275 122.931C381.779 128.326 386.261 141.545 388.625 148.238C388.584 142.373 388.635 136.183 388.933 129.837Z" fill="black"/>
<path d="M361.537 120.133L353.179 138.142C353.003 138.52 352.941 138.949 353.003 139.368C353.065 139.787 353.247 140.174 353.524 140.472C353.8 140.771 354.157 140.966 354.542 141.03C354.927 141.094 355.321 141.024 355.667 140.828L361.126 137.56C361.422 137.386 361.758 137.307 362.094 137.33C362.431 137.354 362.754 137.48 363.027 137.694L368.404 141.914C368.713 142.159 369.086 142.288 369.467 142.284C369.849 142.28 370.22 142.143 370.524 141.892C370.828 141.641 371.051 141.289 371.157 140.89C371.264 140.491 371.251 140.065 371.118 139.675L364.837 120.446C364.728 120.08 364.522 119.758 364.246 119.518C363.969 119.279 363.634 119.133 363.282 119.1C362.93 119.067 362.577 119.147 362.267 119.33C361.956 119.514 361.703 119.793 361.537 120.133Z" fill="white"/>
<path d="M375.035 75.1709C373.863 82.5134 372.814 95.9224 377.605 100.679C377.605 100.679 376.207 107.328 363.449 109.634C354.876 106.634 356.757 101.217 356.757 101.217C364.2 99.09 363.881 93.057 362.473 87.4159L375.035 75.1709Z" fill="#FF8B7B"/>
<path opacity="0.2" d="M369.915 80.1519L362.473 87.36C362.819 88.6742 363.06 90.0187 363.192 91.3783C366.05 90.8634 369.905 87.3488 370.142 84.0917C370.287 82.7744 370.211 81.4392 369.915 80.1519Z" fill="black"/>
<path d="M379.117 66.1385C376.639 75.6748 375.642 81.3944 370.173 85.3007C361.949 91.1657 351.864 84.1814 351.669 74.0071C351.484 64.8738 355.555 50.8044 365.033 49.0135C367.115 48.6114 369.257 48.7947 371.255 49.5461C373.254 50.2975 375.043 51.592 376.454 53.3071C377.864 55.0221 378.849 57.1009 379.315 59.3464C379.781 61.5919 379.713 63.9298 379.117 66.1385Z" fill="#FF8B7B"/>
<path d="M373.842 71.981C372.691 68.9366 371.858 58.9078 376.659 56.4454C381.46 53.983 386.446 59.9935 385.181 62.8365C383.238 67.2465 376.515 79.0325 373.842 71.981Z" fill="#263238"/>
<path d="M376.711 59.9822C375.528 56.6244 361.435 54.7216 359.461 51.1063C357.117 46.8083 366.729 46.2934 373.339 48.476C379.147 50.4012 383.023 52.2592 382.344 56.9602C381.964 59.6241 376.711 59.9822 376.711 59.9822Z" fill="#263238"/>
<path d="M379.774 56.5236C379.774 56.5236 382.858 57.4414 384.544 54.979C384.009 57.419 381.388 59.8815 379.774 56.5236Z" fill="#263238"/>
<path d="M365.659 46.1705C361.424 42.5888 355.657 46.7973 356.201 51.4647C356.746 56.1321 371.025 59.6802 371.025 59.6802C371.025 59.6802 371.282 50.9274 365.659 46.1705Z" fill="#263238"/>
<path d="M356.212 51.487C356.86 54.7553 359.05 57.3185 363.48 59.2213C360.916 57.1567 358.973 54.3088 357.898 51.0393L356.212 51.487Z" fill="#263238"/>
<path d="M365.105 65.657C364.951 66.4517 364.447 67.0001 363.974 66.8882C363.501 66.7763 363.244 66.0375 363.398 65.2541C363.552 64.4706 364.066 63.9221 364.539 64.034C365.012 64.146 365.269 64.9183 365.105 65.657Z" fill="#263238"/>
<path d="M356.942 63.732C356.778 64.5155 356.274 65.064 355.801 64.952C355.328 64.8401 355.071 64.1126 355.225 63.3291C355.38 62.5456 355.894 61.9971 356.367 62.0979C356.839 62.1986 357.096 62.9485 356.942 63.732Z" fill="#263238"/>
<path d="M359.46 64.7393C358.118 66.9411 356.503 68.9299 354.66 70.6491C355.688 72.2497 357.98 72.1713 357.98 72.1713L359.46 64.7393Z" fill="#FF5652"/>
<path d="M359.646 74.8467C360.611 75.1077 361.62 75.1107 362.587 74.8554C363.553 74.6001 364.449 74.094 365.197 73.3804C365.217 73.3585 365.234 73.3324 365.245 73.3036C365.256 73.2747 365.262 73.2438 365.262 73.2125C365.262 73.1813 365.256 73.1503 365.245 73.1215C365.234 73.0926 365.217 73.0665 365.197 73.0446C365.155 73.0021 365.1 72.9785 365.043 72.9785C364.985 72.9785 364.93 73.0021 364.888 73.0446C364.187 73.6878 363.356 74.1433 362.464 74.3746C361.571 74.6058 360.641 74.6065 359.748 74.3766C359.691 74.3632 359.631 74.3752 359.582 74.4098C359.533 74.4444 359.499 74.4989 359.486 74.5613C359.474 74.6236 359.485 74.6887 359.517 74.7422C359.549 74.7957 359.599 74.8333 359.656 74.8467H359.646Z" fill="#263238"/>
<path d="M368.137 63.3739C368.215 63.3911 368.297 63.3845 368.373 63.3549C368.449 63.3252 368.515 63.2737 368.566 63.2057C368.617 63.1378 368.65 63.056 368.661 62.9693C368.672 62.8826 368.662 62.7941 368.63 62.7135C368.352 62.0242 367.928 61.4168 367.391 60.9419C366.855 60.4669 366.222 60.138 365.546 59.9825C365.432 59.9664 365.316 59.9995 365.224 60.0748C365.132 60.15 365.07 60.2615 365.053 60.3854C365.044 60.4464 365.046 60.5087 365.059 60.5687C365.073 60.6288 365.097 60.6853 365.13 60.7352C365.164 60.7851 365.206 60.8273 365.254 60.8595C365.303 60.8917 365.356 60.9132 365.412 60.9227C365.946 61.0503 366.443 61.315 366.864 61.6947C367.284 62.0744 367.615 62.5581 367.828 63.1053C367.857 63.173 367.9 63.2326 367.953 63.2792C368.007 63.3258 368.07 63.3583 368.137 63.3739Z" fill="#263238"/>
<path d="M353.961 59.8257C354.042 59.85 354.127 59.847 354.206 59.817C354.285 59.787 354.354 59.7315 354.403 59.6578C354.728 59.1824 355.152 58.7969 355.64 58.5325C356.127 58.268 356.665 58.1321 357.209 58.1356C357.324 58.1475 357.438 58.1093 357.527 58.0296C357.615 57.9498 357.671 57.835 357.682 57.7103C357.693 57.5856 357.658 57.4613 357.585 57.3648C357.512 57.2682 357.406 57.2073 357.292 57.1954C356.602 57.1731 355.918 57.3325 355.296 57.6598C354.675 57.9872 354.136 58.4729 353.724 59.0758C353.688 59.1237 353.661 59.1791 353.645 59.2388C353.629 59.2984 353.624 59.361 353.63 59.4228C353.637 59.4846 353.655 59.5442 353.684 59.5981C353.712 59.6519 353.751 59.6989 353.796 59.7362C353.843 59.781 353.9 59.8119 353.961 59.8257Z" fill="#263238"/>
<path d="M394.012 109.869C395.883 113.428 397.445 116.876 399.069 120.424C400.694 123.972 402.153 127.542 403.541 131.191C404.929 134.84 406.276 138.545 407.448 142.384C408.666 146.213 409.695 150.11 410.532 154.058L411.159 157.114C411.433 158.549 411.55 160.014 411.508 161.479C411.421 164.201 410.866 166.881 409.874 169.381C408.128 173.594 405.646 177.395 402.565 180.574C399.816 183.463 396.822 186.06 393.621 188.331C392.069 189.45 390.465 190.48 388.851 191.465C387.237 192.45 385.633 193.356 383.834 194.218L380.421 187.715C381.665 186.596 383.033 185.476 384.307 184.268C385.582 183.059 386.826 181.828 388.059 180.596C390.441 178.19 392.651 175.59 394.669 172.817C396.464 170.44 397.857 167.734 398.781 164.826C399.1 163.742 399.225 162.603 399.152 161.468C399.121 161.012 399.042 160.561 398.915 160.125L398.216 157.618C396.139 150.663 393.667 143.856 390.814 137.235C389.406 133.878 387.905 130.52 386.404 127.162C384.903 123.804 383.32 120.446 381.789 117.256L394.012 109.869Z" fill="#FF8B7B"/>
<path d="M392.12 102.291C400.694 104.306 406.656 128.662 406.656 128.662L391.329 143.805C386.455 137.902 382.622 131.073 380.021 123.658C375.96 111.469 382.95 100.12 392.12 102.291Z" fill="#263238"/>
<path d="M382.283 186.562L372.424 186.674L378.592 197.497C378.592 197.497 385.614 195.606 386.241 191.767L382.283 186.562Z" fill="#FF8B7B"/>
<path d="M366.287 193.065L371.725 201.751L378.54 197.498L372.424 186.674L366.287 193.065Z" fill="#FF8B7B"/>
<path d="M381.809 74.8688C380.714 77.063 378.866 78.6965 376.669 79.4131C373.75 80.3421 372.259 77.5103 373.04 74.4994C373.75 71.7908 376.124 68.0412 379.044 68.4329C381.964 68.8247 383.115 72.1713 381.809 74.8688Z" fill="#FF8B7B"/>
<path d="M294.433 260.062L283.473 260.927L283.547 262.044L294.508 261.178L294.433 260.062Z" fill="#EBCFDA"/>
<path d="M304.282 259.288L298.899 259.713L298.973 260.83L304.356 260.404L304.282 259.288Z" fill="#EBCFDA"/>
<path d="M351.576 127.9L170.072 142.149C166.295 142.47 162.786 144.4 160.307 147.52C157.828 150.64 156.579 154.699 156.832 158.815L163 251.962C163.292 256.081 165.066 259.908 167.937 262.61C170.807 265.312 174.542 266.67 178.327 266.389L188.607 265.583C189.354 265.525 190.092 265.791 190.658 266.324C191.225 266.857 191.574 267.613 191.63 268.426L192.781 285.686C192.8 286.02 192.91 286.341 193.097 286.606C193.285 286.872 193.541 287.07 193.832 287.176C194.124 287.282 194.438 287.29 194.735 287.2C195.031 287.11 195.296 286.926 195.495 286.671L212.704 265.013C213.427 264.105 214.451 263.546 215.551 263.457L359.8 252.141C363.58 251.823 367.091 249.894 369.572 246.774C372.053 243.653 373.303 239.593 373.051 235.475L366.883 142.328C366.591 138.213 364.819 134.39 361.954 131.688C359.088 128.987 355.358 127.626 351.576 127.9Z" fill="#0052CC"/>
<path d="M196.585 184.906L206.392 184.133L207.194 196.221L217.906 195.382L217.104 183.294L226.952 182.51L229.245 217.051L219.396 217.824L218.471 203.855L207.759 204.706L208.685 218.674L198.888 219.447L196.585 184.906Z" fill="white"/>
<path opacity="0.2" d="M170.072 142.149C166.295 142.47 162.786 144.4 160.307 147.52C157.828 150.64 156.579 154.699 156.832 158.815L163 251.962C163.292 256.081 165.066 259.908 167.937 262.61C170.807 265.312 174.542 266.67 178.327 266.389L179.838 266.266C182.349 266.069 184.73 264.974 186.611 263.153C188.492 261.331 189.768 258.885 190.242 256.193L210.915 138.937L170.072 142.149Z" fill="black"/>
<path d="M260.012 204.448L242.351 205.836C242.486 207.082 242.967 208.253 243.728 209.194C244.165 209.694 244.702 210.078 245.298 210.315C245.894 210.552 246.531 210.635 247.162 210.559C248.027 210.492 248.863 210.184 249.588 209.664C250.155 209.196 250.639 208.62 251.017 207.963L259.755 208.153C258.804 210.499 257.26 212.502 255.303 213.928C253.508 215.167 250.856 215.913 247.347 216.167C244.893 216.478 242.407 216.191 240.068 215.328C238.193 214.47 236.584 213.045 235.432 211.22C234.112 209.142 233.353 206.703 233.243 204.179C233.059 202.427 233.215 200.652 233.7 198.969C234.185 197.286 234.989 195.732 236.059 194.408C238.198 191.811 241.282 190.353 245.311 190.032C247.979 189.687 250.684 190.032 253.206 191.039C255.138 191.937 256.765 193.467 257.863 195.415C259.121 197.836 259.826 200.55 259.919 203.329L260.012 204.448ZM250.76 200.553C250.635 199.097 250.058 197.732 249.125 196.68C248.655 196.286 248.116 196.002 247.541 195.845C246.966 195.687 246.367 195.66 245.782 195.765C245.197 195.87 244.638 196.105 244.14 196.455C243.641 196.805 243.214 197.262 242.885 197.8C242.336 198.853 242.059 200.048 242.083 201.258L250.76 200.553Z" fill="white"/>
<path d="M262.736 179.701L271.567 179.007L273.859 213.537L265.029 214.231L262.736 179.701Z" fill="white"/>
<path d="M277.488 178.537L286.319 177.843L288.611 212.373L279.791 213.067L277.488 178.537Z" fill="white"/>
<path d="M292.332 199.579C292.166 197.828 292.339 196.057 292.842 194.383C293.345 192.709 294.166 191.17 295.252 189.864C297.452 187.2 300.567 185.708 304.597 185.387C309.188 185.029 312.759 186.208 315.308 188.924C317.426 191.355 318.649 194.549 318.746 197.898C318.843 201.247 317.806 204.518 315.833 207.09C313.653 209.731 310.494 211.224 306.354 211.567C303.139 211.987 299.89 211.154 297.185 209.216C295.746 208.129 294.558 206.692 293.716 205.02C292.874 203.348 292.4 201.485 292.332 199.579ZM301.163 198.863C301.147 200.63 301.704 202.346 302.736 203.709C303.152 204.174 303.656 204.534 304.213 204.765C304.77 204.996 305.366 205.092 305.961 205.048C306.555 205.003 307.134 204.818 307.656 204.506C308.178 204.194 308.632 203.761 308.986 203.239C309.817 201.681 310.129 199.859 309.87 198.079C309.88 196.348 309.331 194.668 308.318 193.334C307.922 192.861 307.431 192.494 306.884 192.261C306.337 192.028 305.747 191.935 305.162 191.991C304.551 192.021 303.955 192.205 303.421 192.527C302.886 192.85 302.426 193.302 302.078 193.849C301.25 195.354 300.94 197.132 301.204 198.863H301.163Z" fill="white"/>
<path d="M321.527 175.067L330.934 174.328L331.458 182.163L330.687 198.113L324.868 198.572L322.041 182.902L321.527 175.067ZM323.583 201.124L332.362 200.43L332.928 208.892L324.138 209.575L323.583 201.124Z" fill="white"/>
<path d="M167.564 111.481C167.518 113.119 167.597 114.759 167.8 116.383C158.485 119.77 148.551 120.627 138.862 118.879C139.327 116.965 139.61 115.003 139.705 113.025C139.381 115.017 138.745 116.932 137.824 118.689C135.994 118.308 134.966 117.984 134.966 117.984C134.966 117.984 136.837 106.97 133.465 98.9559C130.093 90.9418 131.779 86.4647 134.329 85.1999C139.057 69.3732 156.831 71.8692 162.845 78.2939C170.473 86.4423 170.514 109.399 171.871 114.648C170.751 115.174 169.651 115.656 168.551 116.081C168 114.614 167.667 113.061 167.564 111.481Z" fill="#263238"/>
<path d="M174.914 136.116L175.839 139.306C176.178 140.425 176.518 141.545 176.867 142.608C177.556 144.847 178.276 147.085 179.047 149.234C179.818 151.383 180.558 153.644 181.36 155.838L182.552 159.196L182.85 160.024L182.922 160.214C182.795 160.093 182.649 159.998 182.49 159.935C182.264 159.845 182.172 159.935 182.316 159.935C182.563 159.933 182.809 159.892 183.045 159.811C183.849 159.534 184.622 159.159 185.348 158.692C187.101 157.58 188.778 156.33 190.365 154.954C192.03 153.543 193.665 152.032 195.268 150.477C196.872 148.921 198.486 147.298 200.038 145.708L203.194 148.619C201.878 150.678 200.491 152.558 199.082 154.472C197.674 156.386 196.091 158.177 194.467 159.957C192.795 161.815 190.975 163.508 189.028 165.016C187.915 165.866 186.719 166.579 185.461 167.143C184.663 167.491 183.827 167.724 182.974 167.837C181.815 167.994 180.639 167.82 179.561 167.333C178.385 166.788 177.384 165.877 176.682 164.714C176.528 164.456 176.384 164.199 176.271 163.964L175.993 163.36L175.623 162.542C175.14 161.423 174.595 160.304 174.174 159.252C173.238 157.013 172.303 154.775 171.45 152.536C170.596 150.298 169.764 147.992 168.972 145.686C168.602 144.567 168.232 143.347 167.882 142.172C167.533 140.996 167.194 139.843 166.854 138.467L174.914 136.116Z" fill="#FFC3BD"/>
<path d="M172.477 126.177C176.024 127.162 178.501 143.033 178.501 143.033L168.735 150.264C168.735 150.264 159.381 134.247 162.105 130.005C164.942 125.595 167.306 124.744 172.477 126.177Z" fill="#EBCFDA"/>
<path d="M172.477 126.177C176.024 127.162 178.501 143.033 178.501 143.033L168.735 150.264C168.735 150.264 159.381 134.247 162.105 130.005C164.942 125.595 167.306 124.744 172.477 126.177Z" fill="#EBCFDA"/>
<path opacity="0.4" d="M172.477 126.177C176.024 127.162 178.501 143.033 178.501 143.033L168.735 150.264C168.735 150.264 159.381 134.247 162.105 130.005C164.942 125.595 167.306 124.744 172.477 126.177Z" fill="white"/>
<path opacity="0.3" d="M172.159 129.725L174.883 145.72L169.394 149.771L172.159 129.725Z" fill="black"/>
<path d="M199.874 146.089L203.133 137.538L207.152 146.089C207.152 146.089 204.541 150.342 201.097 149.301L199.874 146.089Z" fill="#FFC3BD"/>
<path d="M206.721 136.653L211.881 138.914L207.152 146.089L203.123 137.538L206.721 136.653Z" fill="#FFC3BD"/>
<path d="M153.306 393.372H161.91L162.486 371.691H153.881L153.306 393.372Z" fill="#FFC3BD"/>
<path d="M95.6143 365.446L103.52 369.117L113.872 350.358L105.956 346.687L95.6143 365.446Z" fill="#FFC3BD"/>
<path d="M105.041 367.841L96.8169 362.334C96.6763 362.236 96.5073 362.197 96.3422 362.226C96.1772 362.255 96.0277 362.349 95.9226 362.491L90.9779 368.949C90.8549 369.118 90.7665 369.314 90.7187 369.523C90.6709 369.732 90.6649 369.95 90.7009 370.163C90.7369 370.375 90.8142 370.576 90.9276 370.753C91.041 370.929 91.1878 371.078 91.3582 371.188C94.2572 373.057 95.7375 373.796 99.3561 376.213C101.587 377.713 104.691 380.131 107.765 382.19C110.839 384.25 112.905 381.071 111.764 379.896C106.778 374.713 106.922 372.251 105.987 369.184C105.831 368.627 105.495 368.149 105.041 367.841Z" fill="#263238"/>
<path d="M162.198 392.286H152.545C152.379 392.284 152.218 392.348 152.091 392.465C151.964 392.582 151.881 392.745 151.856 392.924L150.756 401.252C150.729 401.465 150.746 401.683 150.803 401.889C150.861 402.095 150.96 402.285 151.092 402.446C151.224 402.607 151.386 402.734 151.568 402.82C151.75 402.906 151.946 402.947 152.144 402.942C155.516 402.886 157.14 402.662 161.396 402.662C164.007 402.662 169.414 402.964 173.023 402.964C176.631 402.964 176.816 399.08 175.315 398.722C168.582 397.144 165.93 394.973 163.658 392.902C163.255 392.512 162.737 392.293 162.198 392.286Z" fill="#263238"/>
<path opacity="0.2" d="M162.476 371.703L162.188 382.873H153.583L153.882 371.703H162.476Z" fill="black"/>
<path opacity="0.2" d="M105.956 346.698L113.861 350.358L108.526 360.029L100.621 356.357L105.956 346.698Z" fill="black"/>
<path d="M172.478 126.177C172.478 126.177 176.59 127.744 168.366 182.667H133.414C134 167.199 134.021 157.662 127.246 125.908C132.133 124.809 137.088 124.098 142.07 123.782C147.35 123.367 152.651 123.367 157.932 123.782C164.758 124.453 172.478 126.177 172.478 126.177Z" fill="#EBCFDA"/>
<path opacity="0.4" d="M172.478 126.177C172.478 126.177 176.59 127.744 168.366 182.667H133.414C134 167.199 134.021 157.662 127.246 125.908C132.133 124.809 137.088 124.098 142.07 123.782C147.35 123.367 152.651 123.367 157.932 123.782C164.758 124.453 172.478 126.177 172.478 126.177Z" fill="#EBCFDA"/>
<path d="M142.09 123.771C147.371 123.367 152.672 123.367 157.952 123.771C158.806 123.86 159.679 123.961 160.543 124.073C160.902 124.661 161.133 125.331 161.217 126.032C161.3 126.732 161.235 127.445 161.026 128.113C159.906 131.124 155.886 131.471 152.967 131.471C142.162 131.471 140.332 124.599 140.261 124.308L140.158 123.894L142.09 123.771Z" fill="white"/>
<path d="M143.663 104.34C144.691 109.936 145.667 120.077 142.09 123.782C142.09 123.782 143.488 129.378 152.966 129.378C163.39 129.378 157.952 123.782 157.952 123.782C152.257 122.304 152.411 117.704 153.398 113.395L143.663 104.34Z" fill="#FFC3BD"/>
<path d="M144.702 100.389C143.478 104.787 145.175 115.197 147.693 119.226C142.728 116.126 141.052 106.679 141.052 106.679L144.702 100.389Z" fill="#263238"/>
<path opacity="0.2" d="M147.631 108.033L153.398 113.383C153.145 114.386 152.98 115.413 152.905 116.45C150.736 116.103 147.765 113.506 147.518 111.033C147.39 110.034 147.429 109.018 147.631 108.033Z" fill="black"/>
<path d="M138.954 94.4228C140.949 103.455 141.606 107.328 146.603 111.212C154.117 117.043 163.873 112.41 164.397 102.907C164.87 94.3556 161.539 81.025 152.75 78.9655C150.813 78.4999 148.8 78.581 146.9 79.2009C145 79.8209 143.278 80.9591 141.895 82.5077C140.513 84.0563 139.518 85.9638 139.003 88.0491C138.488 90.1345 138.471 92.3284 138.954 94.4228Z" fill="#FFC3BD"/>
<path d="M168.377 182.667C168.377 182.667 175.151 254.771 174.545 283.313C173.959 312.996 163.966 380.691 163.966 380.691H152.35C152.35 380.691 154.19 314.709 153.162 285.552C152.042 253.764 142.769 182.645 142.769 182.645L168.377 182.667Z" fill="#EBCFDA"/>
<path opacity="0.4" d="M168.377 182.667C168.377 182.667 175.151 254.771 174.545 283.313C173.959 312.996 163.966 380.691 163.966 380.691H152.35C152.35 380.691 154.19 314.709 153.162 285.552C152.042 253.764 142.769 182.645 142.769 182.645L168.377 182.667Z" fill="black"/>
<path d="M151.383 381.161H165.015L166.022 376.426L150.746 375.844L151.383 381.161Z" fill="#EBCFDA"/>
<path opacity="0.2" d="M153.316 200.609C161.89 219.391 155.033 253.652 152 266.401C150.448 247.261 147.826 223.868 145.781 206.664C147.076 196.994 149.358 191.946 153.316 200.609Z" fill="black"/>
<path d="M159.155 182.667C159.155 182.667 151.239 257.659 145.267 281.69C138.184 310.265 111.219 358.92 111.219 358.92L100.436 353.928C100.436 353.928 117.12 298.681 122.548 283.626C134.113 251.503 124.213 203.631 133.455 182.667H159.155Z" fill="#EBCFDA"/>
<path opacity="0.4" d="M159.155 182.667C159.155 182.667 151.239 257.659 145.267 281.69C138.184 310.265 111.219 358.92 111.219 358.92L100.436 353.928C100.436 353.928 117.12 298.681 122.548 283.626C134.113 251.503 124.213 203.631 133.455 182.667H159.155Z" fill="black"/>
<path d="M98.9453 353.962L112.33 360.163L115.548 356.246L100.107 348.176L98.9453 353.962Z" fill="#EBCFDA"/>
<path d="M152.144 94.546C152.268 95.2847 152.72 95.822 153.172 95.7324C153.625 95.6429 153.882 94.9713 153.758 94.2326C153.635 93.4938 153.183 92.9566 152.73 93.0349C152.278 93.1133 151.97 93.7961 152.144 94.546Z" fill="#263238"/>
<path d="M159.813 93.0684C159.926 93.8071 160.389 94.3444 160.841 94.2549C161.294 94.1653 161.561 93.4937 161.438 92.755C161.314 92.0163 160.862 91.479 160.41 91.5574C159.957 91.6357 159.69 92.3185 159.813 93.0684Z" fill="#263238"/>
<path d="M160.214 91.6471L161.766 90.8076C161.766 90.8076 161.149 92.3634 160.214 91.6471Z" fill="#263238"/>
<path d="M157.973 94.7363C158.856 96.316 159.935 97.7549 161.18 99.012C160.875 99.3483 160.507 99.6084 160.1 99.7746C159.694 99.9408 159.259 100.009 158.826 99.9746L157.973 94.7363Z" fill="#ED847E"/>
<path d="M155.732 103.478C156.121 103.477 156.51 103.439 156.893 103.366C156.923 103.364 156.951 103.356 156.978 103.342C157.004 103.327 157.027 103.307 157.045 103.282C157.064 103.257 157.077 103.228 157.084 103.197C157.091 103.166 157.092 103.134 157.087 103.102C157.082 103.071 157.071 103.041 157.054 103.015C157.037 102.988 157.016 102.966 156.99 102.95C156.965 102.933 156.937 102.923 156.908 102.92C156.879 102.916 156.849 102.919 156.821 102.929C155.975 103.113 155.1 103.076 154.269 102.821C153.439 102.566 152.675 102.101 152.041 101.463C152.003 101.422 151.951 101.399 151.897 101.399C151.843 101.399 151.792 101.422 151.753 101.463C151.733 101.483 151.717 101.507 151.706 101.534C151.696 101.561 151.69 101.59 151.69 101.62C151.69 101.649 151.696 101.678 151.706 101.705C151.717 101.732 151.733 101.756 151.753 101.776C152.826 102.884 154.253 103.494 155.732 103.478Z" fill="#263238"/>
<path d="M141.864 89.1286C142.089 91.5088 142.432 93.874 142.892 96.2137C142.892 96.2137 148.032 89.1286 148.885 85.3343C148.681 86.8282 148.283 88.2829 147.703 89.6547C147.703 89.6547 154.622 88.0093 155.3 83.0397C155.288 85.2646 155.061 87.4819 154.622 89.6547C154.622 89.6547 161.221 86.8341 160.615 82.066C160.008 77.2978 149.872 75.451 145.195 77.0628C140.517 78.6745 135.943 83.9016 137.32 91.0874C138.698 98.2732 141.34 100.971 141.34 100.971C141.34 100.971 139.438 93.7289 141.864 89.1286Z" fill="#263238"/>
<path d="M138.595 101.228C139.229 102.886 140.442 104.202 141.966 104.888C144.022 105.783 145.246 103.869 144.886 101.653C144.567 99.6497 143.118 96.7844 140.99 96.8291C140.524 96.8516 140.071 97 139.671 97.2609C139.272 97.5217 138.938 97.8869 138.7 98.3235C138.462 98.76 138.328 99.2541 138.31 99.7612C138.291 100.268 138.389 100.772 138.595 101.228Z" fill="#FFC3BD"/>
<path d="M143.108 85.6812C142.08 90.1583 144.218 100.456 146.912 104.34C141.772 101.508 139.716 92.1506 139.716 92.1506L143.108 85.6812Z" fill="#263238"/>
<path d="M149.328 91.994C149.381 91.9766 149.43 91.9478 149.472 91.9094C149.515 91.8709 149.55 91.8236 149.575 91.7701C149.792 91.2652 150.115 90.8234 150.519 90.481C150.923 90.1386 151.395 89.9052 151.898 89.8002C152.004 89.7835 152.101 89.7232 152.168 89.6317C152.235 89.5401 152.267 89.4243 152.258 89.3077C152.253 89.2492 152.237 89.1924 152.211 89.1407C152.186 89.0891 152.151 89.0436 152.108 89.007C152.066 88.9704 152.018 88.9435 151.966 88.9279C151.913 88.9122 151.859 88.9082 151.806 88.916C151.168 89.0364 150.566 89.322 150.051 89.7486C149.536 90.1751 149.122 90.7303 148.845 91.3672C148.81 91.445 148.797 91.5322 148.806 91.6182C148.816 91.7041 148.848 91.7852 148.899 91.8516C148.951 91.9179 149.018 91.9667 149.094 91.9919C149.17 92.0172 149.252 92.0179 149.328 91.994Z" fill="#263238"/>
<path d="M162.62 88.5243C162.671 88.5267 162.723 88.517 162.771 88.4957C162.819 88.4745 162.862 88.4422 162.897 88.4012C162.973 88.3175 163.015 88.205 163.015 88.0878C163.015 87.9706 162.973 87.8581 162.897 87.7744C162.459 87.2578 161.915 86.861 161.309 86.6159C160.704 86.3709 160.054 86.2847 159.412 86.3641C159.359 86.3749 159.308 86.397 159.262 86.4293C159.217 86.4617 159.178 86.5035 159.147 86.5524C159.116 86.6014 159.095 86.6564 159.084 86.7144C159.073 86.7723 159.073 86.8321 159.083 86.8902C159.106 87.0034 159.167 87.1027 159.256 87.1674C159.344 87.2321 159.451 87.2571 159.556 87.2372C160.062 87.1756 160.575 87.2448 161.052 87.4393C161.528 87.6338 161.957 87.948 162.301 88.3564C162.339 88.4085 162.388 88.4506 162.443 88.4796C162.498 88.5087 162.558 88.524 162.62 88.5243Z" fill="#263238"/>
<path d="M131.512 139.194C130.083 144.108 128.716 149.268 127.554 154.349C126.385 159.365 125.53 164.462 124.994 169.605L124.912 170.545C124.912 170.847 124.912 170.915 124.912 171.183C124.924 171.711 124.961 172.238 125.025 172.761C125.156 173.987 125.345 175.205 125.591 176.41C126.074 178.906 126.619 181.481 127.318 184.033C128.017 186.584 128.613 189.181 129.312 191.756L131.368 199.479L127.554 201.191C125.21 196.311 123.175 191.341 121.273 186.215C120.358 183.641 119.464 181.044 118.724 178.302C118.354 176.936 118.004 175.537 117.696 174.015C117.549 173.209 117.446 172.394 117.387 171.575C117.387 171.161 117.387 170.545 117.387 170.176V169.057C117.474 166.204 117.715 163.36 118.107 160.539C118.446 157.741 118.95 155.01 119.495 152.29C120.564 146.842 121.937 141.471 123.607 136.206L131.512 139.194Z" fill="#FFC3BD"/>
<path d="M127.266 125.908C123.771 127.028 119.566 140.179 119.566 140.179L133.136 150.745C133.136 150.745 138.091 139.799 136.621 134.874C135.089 129.747 131.265 124.588 127.266 125.908Z" fill="#EBCFDA"/>
<path opacity="0.4" d="M127.266 125.908C123.771 127.028 119.566 140.179 119.566 140.179L133.136 150.745C133.136 150.745 138.091 139.799 136.621 134.874C135.089 129.747 131.265 124.588 127.266 125.908Z" fill="white"/>
<path d="M108.516 371.401C108.683 371.337 108.835 371.233 108.961 371.098C109.087 370.962 109.184 370.798 109.246 370.617C109.305 370.501 109.336 370.37 109.336 370.237C109.336 370.103 109.305 369.972 109.246 369.856C108.629 368.871 105.514 368.949 105.134 368.961C105.094 368.961 105.056 368.974 105.023 368.998C104.99 369.022 104.964 369.056 104.949 369.095C104.929 369.13 104.918 369.171 104.918 369.212C104.918 369.254 104.929 369.295 104.949 369.33C105.761 370.214 107.282 371.658 108.351 371.434L108.516 371.401ZM105.627 369.364C106.871 369.364 108.536 369.554 108.865 370.08C108.893 370.131 108.908 370.189 108.908 370.248C108.908 370.307 108.893 370.365 108.865 370.416C108.82 370.551 108.744 370.671 108.646 370.767C108.547 370.863 108.428 370.93 108.3 370.964C107.734 371.121 106.748 370.483 105.627 369.364Z" fill="#EBCFDA"/>
<path d="M106.542 369.129C107.488 368.804 108.496 368.233 108.711 367.595C108.765 367.429 108.766 367.248 108.714 367.082C108.661 366.915 108.559 366.773 108.424 366.677C108.304 366.569 108.163 366.491 108.012 366.45C107.86 366.409 107.702 366.407 107.55 366.442C106.326 366.677 105.011 368.961 104.959 369.061C104.941 369.095 104.932 369.134 104.932 369.173C104.932 369.213 104.941 369.251 104.959 369.285C104.978 369.318 105.003 369.345 105.034 369.365C105.064 369.384 105.099 369.396 105.134 369.397C105.613 369.382 106.087 369.292 106.542 369.129ZM107.488 366.89H107.622C107.718 366.868 107.818 366.87 107.914 366.895C108.01 366.92 108.1 366.968 108.177 367.036C108.382 367.215 108.362 367.349 108.331 367.45C108.125 368.065 106.563 368.804 105.525 368.949C105.997 368.089 106.676 367.385 107.488 366.912V366.89Z" fill="#EBCFDA"/>
<path d="M165.426 393.92C166.15 393.985 166.874 393.784 167.482 393.35C167.623 393.21 167.73 393.036 167.795 392.84C167.86 392.645 167.879 392.436 167.852 392.23C167.844 392.109 167.807 391.992 167.746 391.89C167.685 391.788 167.601 391.705 167.502 391.648C166.474 391.022 163.03 392.924 162.64 393.137C162.602 393.154 162.57 393.182 162.547 393.219C162.524 393.256 162.512 393.3 162.512 393.344C162.512 393.388 162.524 393.432 162.547 393.469C162.57 393.506 162.602 393.534 162.64 393.551C163.554 393.776 164.488 393.9 165.426 393.92ZM166.957 391.984C167.088 391.975 167.219 392.002 167.338 392.062C167.378 392.087 167.412 392.122 167.436 392.166C167.459 392.209 167.471 392.258 167.471 392.309C167.49 392.437 167.48 392.569 167.44 392.692C167.401 392.816 167.334 392.926 167.245 393.014C166.721 393.529 165.302 393.618 163.4 393.271C164.511 392.626 165.713 392.191 166.957 391.984Z" fill="#EBCFDA"/>
<path d="M162.763 393.596H162.846C163.874 393.092 165.93 391.078 165.745 390.014C165.745 389.757 165.539 389.455 164.974 389.387C164.771 389.363 164.566 389.384 164.372 389.449C164.177 389.515 163.997 389.623 163.843 389.768C162.815 390.753 162.568 393.271 162.558 393.372C162.556 393.411 162.564 393.45 162.58 393.486C162.597 393.521 162.621 393.551 162.65 393.574C162.684 393.597 162.724 393.605 162.763 393.596ZM164.819 389.802H164.943C165.313 389.802 165.344 390.014 165.344 390.059C165.446 390.697 164.069 392.298 163.02 392.98C163.103 391.917 163.487 390.907 164.12 390.093C164.309 389.906 164.554 389.802 164.809 389.802H164.819Z" fill="#EBCFDA"/>
<path d="M132.931 180.44L132.047 183.797C131.924 184.055 132.211 184.324 132.612 184.324H168.592C168.911 184.324 169.168 184.156 169.189 183.943L169.507 180.585C169.507 180.35 169.25 180.149 168.911 180.149H133.507C133.396 180.139 133.285 180.161 133.184 180.212C133.083 180.263 132.996 180.341 132.931 180.44Z" fill="#263238"/>
<path d="M137.68 184.738H136.724C136.539 184.738 136.395 184.637 136.405 184.503L136.847 180.026C136.847 179.902 137.032 179.791 137.217 179.791H138.163C138.358 179.791 138.492 179.902 138.482 180.026L138.04 184.503C138.04 184.682 137.875 184.738 137.68 184.738Z" fill="#EBCFDA"/>
<path opacity="0.4" d="M137.68 184.738H136.724C136.539 184.738 136.395 184.637 136.405 184.503L136.847 180.026C136.847 179.902 137.032 179.791 137.217 179.791H138.163C138.358 179.791 138.492 179.902 138.482 180.026L138.04 184.503C138.04 184.682 137.875 184.738 137.68 184.738Z" fill="black"/>
<path d="M165.878 184.738H164.932C164.747 184.738 164.604 184.637 164.614 184.503L165.066 180.026C165.066 179.902 165.241 179.791 165.426 179.791H166.372C166.567 179.791 166.711 179.902 166.69 180.026L166.248 184.503C166.238 184.682 166.074 184.738 165.878 184.738Z" fill="#EBCFDA"/>
<path opacity="0.4" d="M165.878 184.738H164.932C164.747 184.738 164.604 184.637 164.614 184.503L165.066 180.026C165.066 179.902 165.241 179.791 165.426 179.791H166.372C166.567 179.791 166.711 179.902 166.69 180.026L166.248 184.503C166.238 184.682 166.074 184.738 165.878 184.738Z" fill="black"/>
<path d="M151.784 184.738H150.839C150.643 184.738 150.499 184.637 150.52 184.503L150.962 180.026C150.962 179.902 151.137 179.791 151.332 179.791H152.278C152.463 179.791 152.607 179.902 152.597 180.026L152.155 184.503C152.144 184.682 151.969 184.738 151.784 184.738Z" fill="#EBCFDA"/>
<path opacity="0.4" d="M151.784 184.738H150.839C150.643 184.738 150.499 184.637 150.52 184.503L150.962 180.026C150.962 179.902 151.137 179.791 151.332 179.791H152.278C152.463 179.791 152.607 179.902 152.597 180.026L152.155 184.503C152.144 184.682 151.969 184.738 151.784 184.738Z" fill="black"/>
<path d="M152.493 93.1132L154.045 92.2849C154.045 92.2849 153.429 93.8407 152.493 93.1132Z" fill="#263238"/>
<path d="M131.08 198.214L138.451 204.37L129.908 206.418C129.908 206.418 126.279 201.941 127.534 198.247L131.08 198.214Z" fill="#FFC3BD"/>
<path d="M140.261 211.992L133.024 213.28L129.076 205.198L138.452 204.37L140.261 211.992Z" fill="#FFC3BD"/>
</svg>
