<svg width="50" height="50" viewBox="0 0 50 50" fill="none" xmlns="http://www.w3.org/2000/svg">
<path d="M41.6663 14.5834V14.1667C41.6663 10.6664 41.6663 8.91626 40.9851 7.57931C40.3859 6.40329 39.4298 5.44717 38.2538 4.84796C36.9168 4.16675 35.1667 4.16675 31.6663 4.16675H18.333C14.8327 4.16675 13.0825 4.16675 11.7456 4.84796C10.5696 5.44717 9.61343 6.40329 9.01422 7.57931C8.33301 8.91626 8.33301 10.6664 8.33301 14.1667V35.8334C8.33301 39.3337 8.33301 41.0839 9.01422 42.4209C9.61343 43.5969 10.5696 44.553 11.7456 45.1522C13.0825 45.8334 14.8327 45.8334 18.333 45.8334H26.0413M26.0413 22.9167H16.6663M23.958 31.2501H16.6663M33.333 14.5834H16.6663M37.4997 37.5001V26.0417C37.4997 24.3159 38.8988 22.9167 40.6247 22.9167C42.3506 22.9167 43.7497 24.3159 43.7497 26.0417V37.5001C43.7497 40.9519 40.9515 43.7501 37.4997 43.7501C34.0479 43.7501 31.2497 40.9519 31.2497 37.5001V29.1667" stroke="#0052CC" stroke-width="2" stroke-linecap="round" stroke-linejoin="round"/>
</svg>
