<svg width="91" height="75" viewBox="0 0 91 75" fill="none" xmlns="http://www.w3.org/2000/svg">
<path d="M5.69336 69.3903C5.69336 69.3903 17.2284 54.6623 45.6908 54.6623C74.1532 54.6623 85.6934 69.3903 85.6934 69.3903M45.6908 36.5499C49.8082 36.5499 53.7571 34.9142 56.6686 32.0027C59.5801 29.0912 61.2157 25.1424 61.2157 21.0249C61.2157 16.9075 59.5801 12.9586 56.6686 10.0471C53.7571 7.13566 49.8082 5.5 45.6908 5.5C41.5733 5.5 37.6245 7.13566 34.713 10.0471C31.8015 12.9586 30.1658 16.9075 30.1658 21.0249C30.1658 25.1424 31.8015 29.0912 34.713 32.0027C37.6245 34.9142 41.5733 36.5499 45.6908 36.5499Z" stroke="white" stroke-width="10" stroke-linecap="round" stroke-linejoin="round"/>
</svg>
