<svg width="34" height="42" viewBox="0 0 34 42" fill="none" xmlns="http://www.w3.org/2000/svg">
<path d="M12.6252 28.291L17.0002 23.916L21.3752 28.291L24.2918 25.3744L19.9168 20.9994L24.2918 16.6243L21.3752 13.7077L17.0002 18.0827L12.6252 13.7077L9.7085 16.6243L14.0835 20.9994L9.7085 25.3744L12.6252 28.291ZM17.0002 41.8327C12.1738 40.6174 8.18975 37.848 5.04808 33.5243C1.90502 29.2021 0.333496 24.4021 0.333496 19.1244V6.41602L17.0002 0.166016L33.6668 6.41602V19.1244C33.6668 24.4021 32.096 29.2021 28.9543 33.5243C25.8113 37.848 21.8266 40.6174 17.0002 41.8327ZM17.0002 37.4577C20.6113 36.3119 23.5974 34.0202 25.9585 30.5827C28.3196 27.1452 29.5002 23.3257 29.5002 19.1244V9.2806L17.0002 4.5931L4.50016 9.2806V19.1244C4.50016 23.3257 5.68072 27.1452 8.04183 30.5827C10.4029 34.0202 13.3891 36.3119 17.0002 37.4577Z" fill="#0052CC"/>
</svg>
