<svg width="50" height="50" viewBox="0 0 50 50" fill="none" xmlns="http://www.w3.org/2000/svg">
<path d="M39.583 13.5416C36.1455 13.5416 33.333 12.6041 33.333 11.4583V13.5416C33.333 14.6874 36.1455 15.6249 39.583 15.6249C43.0205 15.6249 45.833 14.6874 45.833 13.5416V11.4583C45.833 12.6041 43.0205 13.5416 39.583 13.5416Z" fill="#0052CC"/>
<path d="M39.583 10.4166C36.1455 10.4166 33.333 9.47909 33.333 8.33325V10.4166C33.333 11.5624 36.1455 12.4999 39.583 12.4999C43.0205 12.4999 45.833 11.5624 45.833 10.4166V8.33325C45.833 9.47909 43.0205 10.4166 39.583 10.4166ZM39.583 16.6666C36.1455 16.6666 33.333 15.7291 33.333 14.5833V16.6666C33.333 17.8124 36.1455 18.7499 39.583 18.7499C43.0205 18.7499 45.833 17.8124 45.833 16.6666V14.5833C45.833 15.7291 43.0205 16.6666 39.583 16.6666Z" fill="#0052CC"/>
<path d="M39.583 19.7916C36.1455 19.7916 33.333 18.8541 33.333 17.7083V19.7916C33.333 20.9374 36.1455 21.8749 39.583 21.8749C43.0205 21.8749 45.833 20.9374 45.833 19.7916V17.7083C45.833 18.8541 43.0205 19.7916 39.583 19.7916Z" fill="#0052CC"/>
<path d="M39.583 22.9166C36.1455 22.9166 33.333 21.9791 33.333 20.8333V22.9166C33.333 24.0624 36.1455 24.9999 39.583 24.9999C43.0205 24.9999 45.833 24.0624 45.833 22.9166V20.8333C45.833 21.9791 43.0205 22.9166 39.583 22.9166Z" fill="#0052CC"/>
<path d="M39.583 26.0416C36.1455 26.0416 33.333 25.1041 33.333 23.9583V26.0416C33.333 27.1874 36.1455 28.1249 39.583 28.1249C43.0205 28.1249 45.833 27.1874 45.833 26.0416V23.9583C45.833 25.1041 43.0205 26.0416 39.583 26.0416Z" fill="#0052CC"/>
<path d="M39.583 29.1666C36.1455 29.1666 33.333 28.2291 33.333 27.0833V29.1666C33.333 30.3124 36.1455 31.2499 39.583 31.2499C43.0205 31.2499 45.833 30.3124 45.833 29.1666V27.0833C45.833 28.2291 43.0205 29.1666 39.583 29.1666Z" fill="#0052CC"/>
<path d="M39.583 32.2916C36.1455 32.2916 33.333 31.3541 33.333 30.2083V32.2916C33.333 33.4374 36.1455 34.3749 39.583 34.3749C43.0205 34.3749 45.833 33.4374 45.833 32.2916V30.2083C45.833 31.3541 43.0205 32.2916 39.583 32.2916Z" fill="#0052CC"/>
<path d="M39.583 35.4166C36.1455 35.4166 33.333 34.4791 33.333 33.3333V35.4166C33.333 36.5624 36.1455 37.4999 39.583 37.4999C43.0205 37.4999 45.833 36.5624 45.833 35.4166V33.3333C45.833 34.4791 43.0205 35.4166 39.583 35.4166Z" fill="#0052CC"/>
<path d="M39.583 38.5416C36.1455 38.5416 33.333 37.6041 33.333 36.4583V38.5416C33.333 39.6874 36.1455 40.6249 39.583 40.6249C43.0205 40.6249 45.833 39.6874 45.833 38.5416V36.4583C45.833 37.6041 43.0205 38.5416 39.583 38.5416Z" fill="#0052CC"/>
<path d="M39.583 41.6666C36.1455 41.6666 33.333 40.7291 33.333 39.5833V41.6666C33.333 42.8124 36.1455 43.7499 39.583 43.7499C43.0205 43.7499 45.833 42.8124 45.833 41.6666V39.5833C45.833 40.7291 43.0205 41.6666 39.583 41.6666Z" fill="#0052CC"/>
<path d="M39.583 10.4167C43.0348 10.4167 45.833 9.48393 45.833 8.33333C45.833 7.18274 43.0348 6.25 39.583 6.25C36.1312 6.25 33.333 7.18274 33.333 8.33333C33.333 9.48393 36.1312 10.4167 39.583 10.4167Z" fill="#0052CC"/>
<path d="M39.583 12.5C36.6663 12.5 34.2705 11.875 33.5413 10.9375C33.4372 11.1458 33.333 11.25 33.333 11.4583C33.333 12.6042 36.1455 13.5417 39.583 13.5417C43.0205 13.5417 45.833 12.6042 45.833 11.4583C45.833 11.25 45.7288 11.1458 45.6247 10.9375C44.8955 11.875 42.4997 12.5 39.583 12.5ZM39.583 15.625C36.6663 15.625 34.2705 15 33.5413 14.0625C33.4372 14.2708 33.333 14.375 33.333 14.5833C33.333 15.7292 36.1455 16.6667 39.583 16.6667C43.0205 16.6667 45.833 15.7292 45.833 14.5833C45.833 14.375 45.7288 14.2708 45.6247 14.0625C44.8955 15 42.4997 15.625 39.583 15.625ZM39.583 18.75C36.6663 18.75 34.2705 18.125 33.5413 17.1875C33.4372 17.3958 33.333 17.5 33.333 17.7083C33.333 18.8542 36.1455 19.7917 39.583 19.7917C43.0205 19.7917 45.833 18.8542 45.833 17.7083C45.833 17.5 45.7288 17.3958 45.6247 17.1875C44.8955 18.125 42.4997 18.75 39.583 18.75ZM39.583 21.875C36.6663 21.875 34.2705 21.25 33.5413 20.3125C33.4372 20.5208 33.333 20.625 33.333 20.8333C33.333 21.9792 36.1455 22.9167 39.583 22.9167C43.0205 22.9167 45.833 21.9792 45.833 20.8333C45.833 20.625 45.7288 20.5208 45.6247 20.3125C44.8955 21.25 42.4997 21.875 39.583 21.875ZM39.583 25C36.6663 25 34.2705 24.375 33.5413 23.4375C33.4372 23.6458 33.333 23.75 33.333 23.9583C33.333 25.1042 36.1455 26.0417 39.583 26.0417C43.0205 26.0417 45.833 25.1042 45.833 23.9583C45.833 23.75 45.7288 23.6458 45.6247 23.4375C44.8955 24.375 42.4997 25 39.583 25ZM39.583 28.125C36.6663 28.125 34.2705 27.5 33.5413 26.5625C33.4372 26.7708 33.333 26.875 33.333 27.0833C33.333 28.2292 36.1455 29.1667 39.583 29.1667C43.0205 29.1667 45.833 28.2292 45.833 27.0833C45.833 26.875 45.7288 26.7708 45.6247 26.5625C44.8955 27.5 42.4997 28.125 39.583 28.125ZM39.583 31.25C36.6663 31.25 34.2705 30.625 33.5413 29.6875C33.4372 29.8958 33.333 30 33.333 30.2083C33.333 31.3542 36.1455 32.2917 39.583 32.2917C43.0205 32.2917 45.833 31.3542 45.833 30.2083C45.833 30 45.7288 29.8958 45.6247 29.6875C44.8955 30.625 42.4997 31.25 39.583 31.25ZM39.583 34.375C36.6663 34.375 34.2705 33.75 33.5413 32.8125C33.4372 33.0208 33.333 33.125 33.333 33.3333C33.333 34.4792 36.1455 35.4167 39.583 35.4167C43.0205 35.4167 45.833 34.4792 45.833 33.3333C45.833 33.125 45.7288 33.0208 45.6247 32.8125C44.8955 33.75 42.4997 34.375 39.583 34.375ZM39.583 37.5C36.6663 37.5 34.2705 36.875 33.5413 35.9375C33.4372 36.1458 33.333 36.25 33.333 36.4583C33.333 37.6042 36.1455 38.5417 39.583 38.5417C43.0205 38.5417 45.833 37.6042 45.833 36.4583C45.833 36.25 45.7288 36.1458 45.6247 35.9375C44.8955 36.875 42.4997 37.5 39.583 37.5ZM39.583 40.625C36.6663 40.625 34.2705 40 33.5413 39.0625C33.4372 39.2708 33.333 39.375 33.333 39.5833C33.333 40.7292 36.1455 41.6667 39.583 41.6667C43.0205 41.6667 45.833 40.7292 45.833 39.5833C45.833 39.375 45.7288 39.2708 45.6247 39.0625C44.8955 40 42.4997 40.625 39.583 40.625Z" fill="#0052CC"/>
<path d="M10.417 19.7916C6.97949 19.7916 4.16699 18.8541 4.16699 17.7083V19.7916C4.16699 20.9374 6.97949 21.8749 10.417 21.8749C13.8545 21.8749 16.667 20.9374 16.667 19.7916V17.7083C16.667 18.8541 13.8545 19.7916 10.417 19.7916Z" fill="#0052CC"/>
<path d="M10.417 16.6666C6.97949 16.6666 4.16699 15.7291 4.16699 14.5833V16.6666C4.16699 17.8124 6.97949 18.7499 10.417 18.7499C13.8545 18.7499 16.667 17.8124 16.667 16.6666V14.5833C16.667 15.7291 13.8545 16.6666 10.417 16.6666ZM10.417 22.9166C6.97949 22.9166 4.16699 21.9791 4.16699 20.8333V22.9166C4.16699 24.0624 6.97949 24.9999 10.417 24.9999C13.8545 24.9999 16.667 24.0624 16.667 22.9166V20.8333C16.667 21.9791 13.8545 22.9166 10.417 22.9166Z" fill="#0052CC"/>
<path d="M10.417 26.0416C6.97949 26.0416 4.16699 25.1041 4.16699 23.9583V26.0416C4.16699 27.1874 6.97949 28.1249 10.417 28.1249C13.8545 28.1249 16.667 27.1874 16.667 26.0416V23.9583C16.667 25.1041 13.8545 26.0416 10.417 26.0416Z" fill="#0052CC"/>
<path d="M10.417 29.1666C6.97949 29.1666 4.16699 28.2291 4.16699 27.0833V29.1666C4.16699 30.3124 6.97949 31.2499 10.417 31.2499C13.8545 31.2499 16.667 30.3124 16.667 29.1666V27.0833C16.667 28.2291 13.8545 29.1666 10.417 29.1666Z" fill="#0052CC"/>
<path d="M10.417 32.2916C6.97949 32.2916 4.16699 31.3541 4.16699 30.2083V32.2916C4.16699 33.4374 6.97949 34.3749 10.417 34.3749C13.8545 34.3749 16.667 33.4374 16.667 32.2916V30.2083C16.667 31.3541 13.8545 32.2916 10.417 32.2916Z" fill="#0052CC"/>
<path d="M10.417 35.4166C6.97949 35.4166 4.16699 34.4791 4.16699 33.3333V35.4166C4.16699 36.5624 6.97949 37.4999 10.417 37.4999C13.8545 37.4999 16.667 36.5624 16.667 35.4166V33.3333C16.667 34.4791 13.8545 35.4166 10.417 35.4166Z" fill="#0052CC"/>
<path d="M10.417 38.5416C6.97949 38.5416 4.16699 37.6041 4.16699 36.4583V38.5416C4.16699 39.6874 6.97949 40.6249 10.417 40.6249C13.8545 40.6249 16.667 39.6874 16.667 38.5416V36.4583C16.667 37.6041 13.8545 38.5416 10.417 38.5416Z" fill="#0052CC"/>
<path d="M10.417 41.6666C6.97949 41.6666 4.16699 40.7291 4.16699 39.5833V41.6666C4.16699 42.8124 6.97949 43.7499 10.417 43.7499C13.8545 43.7499 16.667 42.8124 16.667 41.6666V39.5833C16.667 40.7291 13.8545 41.6666 10.417 41.6666Z" fill="#0052CC"/>
<path d="M10.417 16.6667C13.8688 16.6667 16.667 15.7339 16.667 14.5833C16.667 13.4327 13.8688 12.5 10.417 12.5C6.96521 12.5 4.16699 13.4327 4.16699 14.5833C4.16699 15.7339 6.96521 16.6667 10.417 16.6667Z" fill="#0052CC"/>
<path d="M10.417 18.75C7.50033 18.75 5.10449 18.125 4.37533 17.1875C4.27116 17.3958 4.16699 17.5 4.16699 17.7083C4.16699 18.8542 6.97949 19.7917 10.417 19.7917C13.8545 19.7917 16.667 18.8542 16.667 17.7083C16.667 17.5 16.5628 17.3958 16.4587 17.1875C15.7295 18.125 13.3337 18.75 10.417 18.75ZM10.417 21.875C7.50033 21.875 5.10449 21.25 4.37533 20.3125C4.27116 20.5208 4.16699 20.625 4.16699 20.8333C4.16699 21.9792 6.97949 22.9167 10.417 22.9167C13.8545 22.9167 16.667 21.9792 16.667 20.8333C16.667 20.625 16.5628 20.5208 16.4587 20.3125C15.7295 21.25 13.3337 21.875 10.417 21.875ZM10.417 25C7.50033 25 5.10449 24.375 4.37533 23.4375C4.27116 23.6458 4.16699 23.75 4.16699 23.9583C4.16699 25.1042 6.97949 26.0417 10.417 26.0417C13.8545 26.0417 16.667 25.1042 16.667 23.9583C16.667 23.75 16.5628 23.6458 16.4587 23.4375C15.7295 24.375 13.3337 25 10.417 25ZM10.417 28.125C7.50033 28.125 5.10449 27.5 4.37533 26.5625C4.27116 26.7708 4.16699 26.875 4.16699 27.0833C4.16699 28.2292 6.97949 29.1667 10.417 29.1667C13.8545 29.1667 16.667 28.2292 16.667 27.0833C16.667 26.875 16.5628 26.7708 16.4587 26.5625C15.7295 27.5 13.3337 28.125 10.417 28.125ZM10.417 31.25C7.50033 31.25 5.10449 30.625 4.37533 29.6875C4.27116 29.8958 4.16699 30 4.16699 30.2083C4.16699 31.3542 6.97949 32.2917 10.417 32.2917C13.8545 32.2917 16.667 31.3542 16.667 30.2083C16.667 30 16.5628 29.8958 16.4587 29.6875C15.7295 30.625 13.3337 31.25 10.417 31.25ZM10.417 34.375C7.50033 34.375 5.10449 33.75 4.37533 32.8125C4.27116 33.0208 4.16699 33.125 4.16699 33.3333C4.16699 34.4792 6.97949 35.4167 10.417 35.4167C13.8545 35.4167 16.667 34.4792 16.667 33.3333C16.667 33.125 16.5628 33.0208 16.4587 32.8125C15.7295 33.75 13.3337 34.375 10.417 34.375ZM10.417 37.5C7.50033 37.5 5.10449 36.875 4.37533 35.9375C4.27116 36.1458 4.16699 36.25 4.16699 36.4583C4.16699 37.6042 6.97949 38.5417 10.417 38.5417C13.8545 38.5417 16.667 37.6042 16.667 36.4583C16.667 36.25 16.5628 36.1458 16.4587 35.9375C15.7295 36.875 13.3337 37.5 10.417 37.5ZM10.417 40.625C7.50033 40.625 5.10449 40 4.37533 39.0625C4.27116 39.2708 4.16699 39.375 4.16699 39.5833C4.16699 40.7292 6.97949 41.6667 10.417 41.6667C13.8545 41.6667 16.667 40.7292 16.667 39.5833C16.667 39.375 16.5628 39.2708 16.4587 39.0625C15.7295 40 13.3337 40.625 10.417 40.625Z" fill="#0052CC"/>
<path d="M25 29.1666C21.5625 29.1666 18.75 28.2291 18.75 27.0833V29.1666C18.75 30.3124 21.5625 31.2499 25 31.2499C28.4375 31.2499 31.25 30.3124 31.25 29.1666V27.0833C31.25 28.2291 28.4375 29.1666 25 29.1666Z" fill="#0052CC"/>
<path d="M25 26.0416C21.5625 26.0416 18.75 25.1041 18.75 23.9583V26.0416C18.75 27.1874 21.5625 28.1249 25 28.1249C28.4375 28.1249 31.25 27.1874 31.25 26.0416V23.9583C31.25 25.1041 28.4375 26.0416 25 26.0416ZM25 32.2916C21.5625 32.2916 18.75 31.3541 18.75 30.2083V32.2916C18.75 33.4374 21.5625 34.3749 25 34.3749C28.4375 34.3749 31.25 33.4374 31.25 32.2916V30.2083C31.25 31.3541 28.4375 32.2916 25 32.2916Z" fill="#0052CC"/>
<path d="M25 35.4166C21.5625 35.4166 18.75 34.4791 18.75 33.3333V35.4166C18.75 36.5624 21.5625 37.4999 25 37.4999C28.4375 37.4999 31.25 36.5624 31.25 35.4166V33.3333C31.25 34.4791 28.4375 35.4166 25 35.4166Z" fill="#0052CC"/>
<path d="M25 38.5416C21.5625 38.5416 18.75 37.6041 18.75 36.4583V38.5416C18.75 39.6874 21.5625 40.6249 25 40.6249C28.4375 40.6249 31.25 39.6874 31.25 38.5416V36.4583C31.25 37.6041 28.4375 38.5416 25 38.5416Z" fill="#0052CC"/>
<path d="M25 41.6666C21.5625 41.6666 18.75 40.7291 18.75 39.5833V41.6666C18.75 42.8124 21.5625 43.7499 25 43.7499C28.4375 43.7499 31.25 42.8124 31.25 41.6666V39.5833C31.25 40.7291 28.4375 41.6666 25 41.6666Z" fill="#0052CC"/>
<path d="M25 26.0417C28.4518 26.0417 31.25 25.1089 31.25 23.9583C31.25 22.8077 28.4518 21.875 25 21.875C21.5482 21.875 18.75 22.8077 18.75 23.9583C18.75 25.1089 21.5482 26.0417 25 26.0417Z" fill="#0052CC"/>
<path d="M25 28.125C22.0833 28.125 19.6875 27.5 18.9583 26.5625C18.8542 26.7708 18.75 26.875 18.75 27.0833C18.75 28.2292 21.5625 29.1667 25 29.1667C28.4375 29.1667 31.25 28.2292 31.25 27.0833C31.25 26.875 31.1458 26.7708 31.0417 26.5625C30.3125 27.5 27.9167 28.125 25 28.125ZM25 31.25C22.0833 31.25 19.6875 30.625 18.9583 29.6875C18.8542 29.8958 18.75 30 18.75 30.2083C18.75 31.3542 21.5625 32.2917 25 32.2917C28.4375 32.2917 31.25 31.3542 31.25 30.2083C31.25 30 31.1458 29.8958 31.0417 29.6875C30.3125 30.625 27.9167 31.25 25 31.25ZM25 34.375C22.0833 34.375 19.6875 33.75 18.9583 32.8125C18.8542 33.0208 18.75 33.125 18.75 33.3333C18.75 34.4792 21.5625 35.4167 25 35.4167C28.4375 35.4167 31.25 34.4792 31.25 33.3333C31.25 33.125 31.1458 33.0208 31.0417 32.8125C30.3125 33.75 27.9167 34.375 25 34.375ZM25 37.5C22.0833 37.5 19.6875 36.875 18.9583 35.9375C18.8542 36.1458 18.75 36.25 18.75 36.4583C18.75 37.6042 21.5625 38.5417 25 38.5417C28.4375 38.5417 31.25 37.6042 31.25 36.4583C31.25 36.25 31.1458 36.1458 31.0417 35.9375C30.3125 36.875 27.9167 37.5 25 37.5ZM25 40.625C22.0833 40.625 19.6875 40 18.9583 39.0625C18.8542 39.2708 18.75 39.375 18.75 39.5833C18.75 40.7292 21.5625 41.6667 25 41.6667C28.4375 41.6667 31.25 40.7292 31.25 39.5833C31.25 39.375 31.1458 39.2708 31.0417 39.0625C30.3125 40 27.9167 40.625 25 40.625Z" fill="#0052CC"/>
</svg>
