<svg width="24" height="24" viewBox="0 0 24 24" fill="none" xmlns="http://www.w3.org/2000/svg">
<path d="M21.1875 17.5078H2.8125C2.70937 17.5078 2.625 17.5922 2.625 17.6953V19.0078C2.625 19.1109 2.70937 19.1953 2.8125 19.1953H21.1875C21.2906 19.1953 21.375 19.1109 21.375 19.0078V17.6953C21.375 17.5922 21.2906 17.5078 21.1875 17.5078ZM3.88359 14.5734L4.81406 15.4992C4.88672 15.5719 5.00625 15.5719 5.07891 15.4992L10.5797 10.0172L12.8672 12.2977C13.0081 12.4373 13.1985 12.5156 13.3969 12.5156C13.5953 12.5156 13.7856 12.4373 13.9266 12.2977L20.1188 6.12891C20.1914 6.05625 20.1914 5.93672 20.1188 5.86406L19.1883 4.93594C19.153 4.90104 19.1055 4.88147 19.0559 4.88147C19.0063 4.88147 18.9587 4.90104 18.9234 4.93594L13.3992 10.4438L11.1094 8.16328C10.9684 8.02365 10.7781 7.94531 10.5797 7.94531C10.3813 7.94531 10.1909 8.02365 10.05 8.16328L3.88359 14.3086C3.86606 14.3259 3.85214 14.3465 3.84264 14.3693C3.83314 14.392 3.82825 14.4164 3.82825 14.441C3.82825 14.4657 3.83314 14.49 3.84264 14.5128C3.85214 14.5355 3.86606 14.5561 3.88359 14.5734Z" fill="white"/>
</svg>
