<svg width="50" height="50" viewBox="0 0 50 50" fill="none" xmlns="http://www.w3.org/2000/svg">
<path d="M26.2212 5.38758C25.4399 4.60613 24.3803 4.16698 23.2753 4.16675H8.33366C7.22859 4.16675 6.16878 4.60573 5.38738 5.38714C4.60598 6.16854 4.16699 7.22835 4.16699 8.33341V23.2751C4.16723 24.3801 4.60637 25.4397 5.38783 26.2209L22.0545 42.8876C22.8359 43.6687 23.8955 44.1075 25.0003 44.1075C26.1052 44.1075 27.1648 43.6687 27.9462 42.8876L42.8878 27.9459C43.669 27.1645 44.1078 26.1049 44.1078 25.0001C44.1078 23.8952 43.669 22.8356 42.8878 22.0542L26.2212 5.38758ZM14.5837 18.7501C13.4783 18.7498 12.4184 18.3104 11.6369 17.5287C10.8555 16.7469 10.4167 15.6867 10.417 14.5813C10.4173 13.476 10.8566 12.416 11.6384 11.6346C12.4202 10.8532 13.4804 10.4144 14.5857 10.4147C15.6911 10.4149 16.751 10.8543 17.5325 11.6361C18.3139 12.4179 18.7527 13.4781 18.7524 14.5834C18.7521 15.6888 18.3128 16.7487 17.531 17.5301C16.7492 18.3115 15.689 18.7504 14.5837 18.7501Z" fill="#0052CC"/>
</svg>
