<svg width="46" height="46" viewBox="0 0 46 46" fill="none" xmlns="http://www.w3.org/2000/svg">
<path d="M23.0001 2.16602C11.4938 2.16602 2.16675 11.4931 2.16675 22.9994C2.16675 34.5056 11.4938 43.8327 23.0001 43.8327C34.5063 43.8327 43.8334 34.5056 43.8334 22.9994C43.8334 11.4931 34.5063 2.16602 23.0001 2.16602Z" stroke="#0052CC" stroke-width="3" stroke-linecap="round" stroke-linejoin="round"/>
<path d="M6.89795 36.2208C6.89795 36.2208 11.5417 30.2917 23 30.2917C34.4584 30.2917 39.1042 36.2208 39.1042 36.2208M23 23C24.6576 23 26.2473 22.3415 27.4195 21.1694C28.5916 19.9973 29.25 18.4076 29.25 16.75C29.25 15.0924 28.5916 13.5027 27.4195 12.3306C26.2473 11.1585 24.6576 10.5 23 10.5C21.3424 10.5 19.7527 11.1585 18.5806 12.3306C17.4085 13.5027 16.75 15.0924 16.75 16.75C16.75 18.4076 17.4085 19.9973 18.5806 21.1694C19.7527 22.3415 21.3424 23 23 23V23Z" stroke="#0052CC" stroke-width="3" stroke-linecap="round" stroke-linejoin="round"/>
</svg>
