<svg width="42" height="39" viewBox="0 0 42 39" fill="none" xmlns="http://www.w3.org/2000/svg">
<path d="M37.666 9.08333V4.91667C37.666 2.61875 35.7973 0.75 33.4994 0.75H6.41602C2.97018 0.75 0.166016 3.55417 0.166016 7V32C0.166016 36.5854 3.90352 38.25 6.41602 38.25H37.666C39.9639 38.25 41.8327 36.3812 41.8327 34.0833V13.25C41.8327 10.9521 39.9639 9.08333 37.666 9.08333ZM33.4994 27.8333H29.3327V19.5H33.4994V27.8333ZM6.41602 9.08333C5.8796 9.05934 5.37311 8.82936 5.00201 8.44129C4.63091 8.05321 4.42379 7.53695 4.42379 7C4.42379 6.46305 4.63091 5.94679 5.00201 5.55871C5.37311 5.17064 5.8796 4.94066 6.41602 4.91667H33.4994V9.08333H6.41602Z" fill="#0052CC"/>
</svg>
