<svg width="50" height="51" viewBox="0 0 50 51" fill="none" xmlns="http://www.w3.org/2000/svg">
<path d="M41.666 15.0833V10.9167C41.666 8.61875 39.7973 6.75 37.4994 6.75H10.416C6.97018 6.75 4.16602 9.55417 4.16602 13V38C4.16602 42.5854 7.90352 44.25 10.416 44.25H41.666C43.9639 44.25 45.8327 42.3812 45.8327 40.0833V19.25C45.8327 16.9521 43.9639 15.0833 41.666 15.0833ZM37.4994 33.8333H33.3327V25.5H37.4994V33.8333ZM10.416 15.0833C9.8796 15.0593 9.37311 14.8294 9.00201 14.4413C8.63091 14.0532 8.42379 13.537 8.42379 13C8.42379 12.463 8.63091 11.9468 9.00201 11.5587C9.37311 11.1706 9.8796 10.9407 10.416 10.9167H37.4994V15.0833H10.416Z" fill="#0052CC"/>
</svg>
